<svg width="189" height="38" viewBox="0 0 189 38" fill="none" xmlns="http://www.w3.org/2000/svg">
<rect width="37.7778" height="37.7778" rx="5.03704" fill="url(#paint0_linear_15_12)"/>
<path d="M37.3965 25.6866L34.3566 24.4274C33.0297 20.7159 33.0297 16.6613 34.3566 12.9498L37.0673 11.827C37.3823 11.6965 37.5319 11.3353 37.4014 11.0205C37.2709 10.7056 36.9099 10.5559 36.5949 10.6864L33.8841 11.8093C30.3215 10.1231 27.4545 7.2561 25.7683 3.69342L26.2494 2.53205C26.3799 2.21707 26.2303 1.85604 25.9153 1.72559C25.6007 1.59528 25.2393 1.7447 25.1088 2.05968L24.6277 3.22105C20.9162 4.54784 16.8617 4.54784 13.1501 3.22098L12.4955 1.64051C12.3651 1.3256 12.004 1.17589 11.689 1.30642C11.3741 1.43694 11.2244 1.79804 11.3549 2.11288L12.0096 3.69335C10.3234 7.25595 7.45632 10.123 3.89371 11.8092L0.853648 10.5499C0.538662 10.4195 0.177635 10.5691 0.0471844 10.884C-0.0833403 11.199 0.0662208 11.56 0.38128 11.6905L3.4212 12.9497C4.74806 16.6612 4.74806 20.7157 3.4212 24.4272L0.710506 25.5503C0.395521 25.6807 0.245886 26.0419 0.376411 26.3568C0.474839 26.5944 0.704604 26.738 0.946912 26.738C1.02557 26.738 1.1057 26.7229 1.18287 26.6908L3.89364 25.568C7.45625 27.2543 10.3233 30.1212 12.0095 33.6838L11.5284 34.8452C11.3979 35.1602 11.5474 35.5212 11.8625 35.6517C11.9397 35.6837 12.0197 35.6988 12.0985 35.6988C12.3406 35.6988 12.5705 35.5553 12.669 35.3176L13.15 34.1562C16.8617 32.8293 20.916 32.8293 24.6277 34.1562L25.2823 35.7366C25.3807 35.9743 25.6105 36.1178 25.8528 36.1178C25.9314 36.1178 26.0116 36.1027 26.0887 36.0707C26.4037 35.9402 26.5534 35.5791 26.4228 35.2642L25.7682 33.6838C27.4544 30.1212 30.3215 27.2542 33.8841 25.5679L36.9241 26.8271C37.0012 26.8592 37.0814 26.8743 37.16 26.8743C37.4023 26.8743 37.632 26.7308 37.7305 26.493C37.8611 26.1781 37.7115 25.817 37.3965 25.6866ZM25.1473 5.19257C26.8213 8.24526 29.3322 10.7561 32.3849 12.4302L29.5655 13.5981C27.3505 12.1038 25.4737 10.227 23.9795 8.0121L25.1473 5.19257ZM28.6861 22.0786L26.0621 20.9917C25.9161 19.4615 25.9161 17.9157 26.0621 16.3854L28.6861 15.2985C28.3323 17.5528 28.3323 19.8244 28.6861 22.0786ZM9.09168 15.2987L11.7157 16.3856C11.8617 17.9159 11.8617 19.4617 11.7157 20.9918L9.09168 22.0787C9.44555 19.8245 9.44555 17.5529 9.09168 15.2987ZM24.7782 20.4598L20.5019 18.6886L24.7782 16.9173C24.6961 18.0961 24.6961 19.2811 24.7782 20.4598ZM24.3057 15.7769L20.0295 17.5482L21.8008 13.2719C22.5762 14.1632 23.4143 15.0013 24.3057 15.7769ZM22.3326 11.9878L23.4195 9.36383C24.7633 11.208 26.3696 12.8143 28.2137 14.158L25.5897 15.245C24.4044 14.2661 23.3113 13.173 22.3326 11.9878ZM17.1164 12.7966C17.7071 12.8373 18.3001 12.8586 18.8889 12.8586C19.4777 12.8586 20.0707 12.8373 20.6613 12.7966L18.8889 17.0757L17.1164 12.7966ZM20.6614 24.5807C20.0706 24.54 19.4777 24.5187 18.8889 24.5187C18.3002 24.5187 17.7072 24.54 17.1165 24.5807L18.8889 20.3016L20.6614 24.5807ZM21.1928 11.5133C20.4278 11.5853 19.6547 11.624 18.8888 11.624C18.1229 11.624 17.3499 11.5853 16.5848 11.5133L15.4988 8.89131C17.7357 9.23862 20.042 9.23862 22.2789 8.89131L21.1928 11.5133ZM15.9771 13.2717L17.7483 17.5481L13.472 15.7767C14.3636 15.0013 15.2017 14.1632 15.9771 13.2717ZM12.9996 16.9174L17.2759 18.6886L12.9996 20.46C13.0816 19.2812 13.0816 18.0961 12.9996 16.9174ZM12.1881 15.2449L9.56412 14.158C11.4083 12.8142 13.0146 11.208 14.3583 9.36383L15.4453 11.9878C14.4664 13.173 13.3734 14.2661 12.1881 15.2449ZM12.1881 22.1323C13.3736 23.1113 14.4667 24.2043 15.4453 25.3894L14.3583 28.0135C13.0146 26.1693 11.4083 24.5631 9.56412 23.2192L12.1881 22.1323ZM13.472 21.6004L17.7483 19.8292L15.9769 24.1054C15.2017 23.2141 14.3636 22.376 13.472 21.6004ZM16.5849 25.8639C17.35 25.7919 18.1231 25.7533 18.8889 25.7533C19.6547 25.7533 20.4278 25.7919 21.193 25.8639L22.2789 28.4857C21.1605 28.3116 20.025 28.2222 18.8889 28.2222C17.7529 28.2222 16.6173 28.3116 15.499 28.4857L16.5849 25.8639ZM21.8007 24.1055L20.0295 19.8292L24.3057 21.6005C23.4141 22.3761 22.5761 23.2141 21.8007 24.1055ZM25.5897 22.1323L28.2137 23.2192C26.3696 24.5631 24.7633 26.1693 23.4195 28.0134L22.3326 25.3894C23.3112 24.2044 24.4042 23.1113 25.5897 22.1323ZM24.0068 4.7202L22.8385 7.54061C20.2474 8.04213 17.5303 8.04213 14.9392 7.54061L13.7709 4.72013C17.1134 5.69497 20.6643 5.69497 24.0068 4.7202ZM12.6305 5.19257L13.7984 8.0121C12.3041 10.227 10.4273 12.1038 8.21224 13.5981L5.39272 12.4302C8.44555 10.7561 10.9564 8.24533 12.6305 5.19257ZM4.92042 13.5708L7.73988 14.7387C8.2495 17.3615 8.2495 20.0157 7.73988 22.6385L4.92042 23.8064C5.89526 20.464 5.89526 16.9132 4.92042 13.5708ZM12.6306 32.1848C10.9564 29.132 8.44562 26.6212 5.39287 24.947L8.21239 23.7792C10.4273 25.2734 12.3041 27.1503 13.7985 29.3653L12.6306 32.1848ZM18.8889 31.9256C17.1655 31.9256 15.4422 32.1697 13.771 32.6571L14.9393 29.8366C17.5301 29.3352 20.2477 29.3352 22.8385 29.8366L24.0068 32.6571C22.3355 32.1698 20.6123 31.9256 18.8889 31.9256ZM25.1472 32.1848L23.9794 29.3652C25.4737 27.1503 27.3505 25.2735 29.5655 23.7792L32.3851 24.9471C29.3322 26.6212 26.8214 29.132 25.1472 32.1848ZM32.8574 23.8065L30.0379 22.6386C29.5283 20.0158 29.5283 17.3615 30.0379 14.7387L32.8574 13.5709C31.8827 16.9132 31.8827 20.464 32.8574 23.8065Z" fill="white"/>
<mask id="path-3-outside-1_15_12" maskUnits="userSpaceOnUse" x="49" y="9.38889" width="140" height="20" fill="black">
<rect fill="white" x="49" y="9.38889" width="140" height="20"/>
<path d="M56.5307 27.3889L51.3853 11.3862H54.9213L58.684 23.6942H57.3013L60.9733 11.3862H63.7613L67.4333 23.6942H66.0733L69.8133 11.3862H73.3267L68.1813 27.3889H65.3933L61.6987 15.0809H63.0133L59.3187 27.3889H56.5307ZM78.9583 27.6382C77.7645 27.6382 76.6992 27.3964 75.7623 26.9129C74.8405 26.4142 74.1152 25.7267 73.5863 24.8502C73.0574 23.9738 72.7929 22.984 72.7929 21.8809C72.7929 20.7778 73.0498 19.7956 73.5636 18.9342C74.0925 18.0578 74.8027 17.3702 75.6943 16.8716C76.5858 16.3729 77.5907 16.1236 78.7089 16.1236C79.7969 16.1236 80.7565 16.3578 81.5876 16.8262C82.4187 17.2947 83.0685 17.9444 83.5369 18.7756C84.0205 19.6067 84.2623 20.5587 84.2623 21.6316C84.2623 21.828 84.2472 22.0396 84.2169 22.2662C84.2018 22.4778 84.164 22.7271 84.1036 23.0142L74.6063 23.0369V20.6569L82.6303 20.6342L81.1343 21.6316C81.1192 20.9969 81.0209 20.4756 80.8396 20.0676C80.6583 19.6444 80.3863 19.3271 80.0236 19.1156C79.676 18.8889 79.2454 18.7756 78.7316 18.7756C78.1876 18.7756 77.7116 18.904 77.3036 19.1609C76.9107 19.4027 76.6009 19.7502 76.3743 20.2036C76.1627 20.6569 76.0569 21.2084 76.0569 21.8582C76.0569 22.508 76.1703 23.0671 76.3969 23.5356C76.6387 23.9889 76.9712 24.344 77.3943 24.6009C77.8325 24.8427 78.3463 24.9636 78.9356 24.9636C79.4796 24.9636 79.9707 24.8729 80.4089 24.6916C80.8472 24.4951 81.2325 24.208 81.5649 23.8302L83.4689 25.7342C82.9249 26.3689 82.2676 26.8449 81.4969 27.1622C80.7263 27.4796 79.88 27.6382 78.9583 27.6382ZM92.2829 27.6156C91.5425 27.6156 90.8625 27.4644 90.2429 27.1622C89.6233 26.8449 89.1171 26.4293 88.7242 25.9156C88.3313 25.3867 88.1047 24.7973 88.0442 24.1476V19.5009C88.1047 18.8511 88.3313 18.2769 88.7242 17.7782C89.1171 17.2644 89.6233 16.864 90.2429 16.5769C90.8625 16.2898 91.5425 16.1462 92.2829 16.1462C93.3256 16.1462 94.2473 16.3956 95.0482 16.8942C95.8642 17.3929 96.4989 18.0729 96.9522 18.9342C97.4207 19.7956 97.6549 20.7778 97.6549 21.8809C97.6549 22.984 97.4207 23.9662 96.9522 24.8276C96.4989 25.6889 95.8642 26.3689 95.0482 26.8676C94.2473 27.3662 93.3256 27.6156 92.2829 27.6156ZM85.9362 27.3889V10.9329H89.4042V19.0702L88.8376 21.7449L89.3589 24.4196V27.3889H85.9362ZM91.6709 24.4876C92.1545 24.4876 92.5776 24.3742 92.9402 24.1476C93.318 23.9209 93.6127 23.6111 93.8242 23.2182C94.0358 22.8253 94.1416 22.3796 94.1416 21.8809C94.1416 21.3671 94.0358 20.9138 93.8242 20.5209C93.6127 20.128 93.318 19.8258 92.9402 19.6142C92.5776 19.3876 92.1545 19.2742 91.6709 19.2742C91.1873 19.2742 90.7567 19.3876 90.3789 19.6142C90.0011 19.8258 89.7065 20.128 89.4949 20.5209C89.2985 20.9138 89.2002 21.3671 89.2002 21.8809C89.2002 22.3947 89.306 22.848 89.5176 23.2409C89.7291 23.6338 90.0162 23.9436 90.3789 24.1702C90.7567 24.3818 91.1873 24.4876 91.6709 24.4876ZM107.327 27.6382C106.134 27.6382 105.023 27.4342 103.995 27.0262C102.983 26.6031 102.091 26.0138 101.321 25.2582C100.565 24.5027 99.9758 23.6262 99.5527 22.6289C99.1296 21.6164 98.918 20.5284 98.918 19.3649C98.918 18.2013 99.1296 17.1209 99.5527 16.1236C99.9758 15.1111 100.565 14.2347 101.321 13.4942C102.076 12.7538 102.96 12.1796 103.973 11.7716C105 11.3484 106.111 11.1369 107.305 11.1369C108.574 11.1369 109.7 11.3409 110.682 11.7489C111.679 12.1569 112.548 12.716 113.289 13.4262L110.909 15.8289C110.486 15.3756 109.972 15.0204 109.367 14.7636C108.778 14.5067 108.09 14.3782 107.305 14.3782C106.61 14.3782 105.967 14.4991 105.378 14.7409C104.804 14.9676 104.305 15.3 103.882 15.7382C103.474 16.1764 103.149 16.7053 102.907 17.3249C102.681 17.9444 102.567 18.6244 102.567 19.3649C102.567 20.1204 102.681 20.808 102.907 21.4276C103.149 22.0471 103.474 22.576 103.882 23.0142C104.305 23.4524 104.804 23.7924 105.378 24.0342C105.967 24.276 106.61 24.3969 107.305 24.3969C108.121 24.3969 108.831 24.2684 109.435 24.0116C110.04 23.7547 110.561 23.3996 110.999 22.9462L113.402 25.3489C112.631 26.0591 111.747 26.6182 110.75 27.0262C109.768 27.4342 108.627 27.6382 107.327 27.6382ZM115.044 27.3889V16.3729H118.512V27.3889H115.044ZM118.512 21.3369L117.062 20.2036C117.349 18.9191 117.832 17.9218 118.512 17.2116C119.192 16.5013 120.137 16.1462 121.346 16.1462C121.875 16.1462 122.335 16.2293 122.728 16.3956C123.136 16.5467 123.491 16.7884 123.794 17.1209L121.731 19.7276C121.58 19.5613 121.391 19.4329 121.164 19.3422C120.938 19.2516 120.681 19.2062 120.394 19.2062C119.819 19.2062 119.359 19.3876 119.011 19.7502C118.679 20.0978 118.512 20.6267 118.512 21.3369ZM129.009 27.6156C127.996 27.6156 127.09 27.3662 126.289 26.8676C125.503 26.3689 124.876 25.6889 124.408 24.8276C123.954 23.9662 123.728 22.984 123.728 21.8809C123.728 20.7778 123.954 19.7956 124.408 18.9342C124.876 18.0729 125.503 17.3929 126.289 16.8942C127.09 16.3956 127.996 16.1462 129.009 16.1462C129.749 16.1462 130.414 16.2898 131.004 16.5769C131.608 16.864 132.099 17.2644 132.477 17.7782C132.855 18.2769 133.066 18.8511 133.112 19.5009V24.2609C133.066 24.9107 132.855 25.4924 132.477 26.0062C132.114 26.5049 131.631 26.8978 131.026 27.1849C130.422 27.472 129.749 27.6156 129.009 27.6156ZM129.712 24.4876C130.452 24.4876 131.049 24.2458 131.502 23.7622C131.956 23.2636 132.182 22.6364 132.182 21.8809C132.182 21.3671 132.076 20.9138 131.865 20.5209C131.668 20.128 131.381 19.8258 131.004 19.6142C130.641 19.3876 130.218 19.2742 129.734 19.2742C129.251 19.2742 128.82 19.3876 128.442 19.6142C128.08 19.8258 127.785 20.128 127.558 20.5209C127.347 20.9138 127.241 21.3671 127.241 21.8809C127.241 22.3796 127.347 22.8253 127.558 23.2182C127.77 23.6111 128.064 23.9209 128.442 24.1476C128.82 24.3742 129.243 24.4876 129.712 24.4876ZM132.046 27.3889V24.4196L132.568 21.7449L132.046 19.0702V16.3729H135.446V27.3889H132.046ZM139.293 27.3889V15.4209C139.293 14.5293 139.49 13.7284 139.883 13.0182C140.291 12.2929 140.857 11.7262 141.583 11.3182C142.308 10.8951 143.169 10.6836 144.167 10.6836C144.922 10.6836 145.58 10.812 146.139 11.0689C146.713 11.3107 147.212 11.6507 147.635 12.0889L145.459 14.2649C145.308 14.1138 145.134 14.0004 144.937 13.9249C144.756 13.8342 144.537 13.7889 144.28 13.7889C143.812 13.7889 143.441 13.9249 143.169 14.1969C142.897 14.4689 142.761 14.8391 142.761 15.3076V27.3889H139.293ZM136.868 19.3196V16.3729H145.935V19.3196H136.868ZM148.683 27.3889V11.8169H152.151V27.3889H148.683ZM146.189 19.3196V16.3729H154.644V19.3196H146.189ZM161.391 27.6382C160.197 27.6382 159.131 27.3964 158.195 26.9129C157.273 26.4142 156.547 25.7267 156.019 24.8502C155.49 23.9738 155.225 22.984 155.225 21.8809C155.225 20.7778 155.482 19.7956 155.996 18.9342C156.525 18.0578 157.235 17.3702 158.127 16.8716C159.018 16.3729 160.023 16.1236 161.141 16.1236C162.229 16.1236 163.189 16.3578 164.02 16.8262C164.851 17.2947 165.501 17.9444 165.969 18.7756C166.453 19.6067 166.695 20.5587 166.695 21.6316C166.695 21.828 166.679 22.0396 166.649 22.2662C166.634 22.4778 166.596 22.7271 166.536 23.0142L157.039 23.0369V20.6569L165.063 20.6342L163.567 21.6316C163.551 20.9969 163.453 20.4756 163.272 20.0676C163.091 19.6444 162.819 19.3271 162.456 19.1156C162.108 18.8889 161.678 18.7756 161.164 18.7756C160.62 18.7756 160.144 18.904 159.736 19.1609C159.343 19.4027 159.033 19.7502 158.807 20.2036C158.595 20.6569 158.489 21.2084 158.489 21.8582C158.489 22.508 158.603 23.0671 158.829 23.5356C159.071 23.9889 159.403 24.344 159.827 24.6009C160.265 24.8427 160.779 24.9636 161.368 24.9636C161.912 24.9636 162.403 24.8729 162.841 24.6916C163.279 24.4951 163.665 24.208 163.997 23.8302L165.901 25.7342C165.357 26.3689 164.7 26.8449 163.929 27.1622C163.159 27.4796 162.312 27.6382 161.391 27.6382ZM168.369 27.3889V16.3729H171.837V27.3889H168.369ZM171.837 21.3369L170.386 20.2036C170.673 18.9191 171.157 17.9218 171.837 17.2116C172.517 16.5013 173.461 16.1462 174.67 16.1462C175.199 16.1462 175.66 16.2293 176.053 16.3956C176.461 16.5467 176.816 16.7884 177.118 17.1209L175.055 19.7276C174.904 19.5613 174.715 19.4329 174.489 19.3422C174.262 19.2516 174.005 19.2062 173.718 19.2062C173.144 19.2062 172.683 19.3876 172.335 19.7502C172.003 20.0978 171.837 20.6267 171.837 21.3369ZM181.81 27.6609C181.16 27.6609 180.518 27.5778 179.884 27.4116C179.264 27.2453 178.682 27.0111 178.138 26.7089C177.609 26.3916 177.156 26.0289 176.778 25.6209L178.75 23.6262C179.113 24.0191 179.544 24.3289 180.042 24.5556C180.541 24.7671 181.085 24.8729 181.674 24.8729C182.082 24.8729 182.392 24.8124 182.604 24.6916C182.83 24.5707 182.944 24.4044 182.944 24.1929C182.944 23.9209 182.808 23.7169 182.536 23.5809C182.279 23.4298 181.946 23.3013 181.538 23.1956C181.13 23.0747 180.7 22.9462 180.246 22.8102C179.793 22.6742 179.362 22.4853 178.954 22.2436C178.546 22.0018 178.214 21.6693 177.957 21.2462C177.7 20.808 177.572 20.2564 177.572 19.5916C177.572 18.8813 177.753 18.2693 178.116 17.7556C178.478 17.2267 178.992 16.8111 179.657 16.5089C180.322 16.2067 181.1 16.0556 181.992 16.0556C182.928 16.0556 183.79 16.2218 184.576 16.5542C185.376 16.8716 186.026 17.3476 186.525 17.9822L184.553 19.9769C184.205 19.5689 183.812 19.2818 183.374 19.1156C182.951 18.9493 182.536 18.8662 182.128 18.8662C181.735 18.8662 181.44 18.9267 181.244 19.0476C181.047 19.1533 180.949 19.312 180.949 19.5236C180.949 19.7502 181.077 19.9316 181.334 20.0676C181.591 20.2036 181.924 20.3244 182.332 20.4302C182.74 20.536 183.17 20.6644 183.624 20.8156C184.077 20.9667 184.508 21.1707 184.916 21.4276C185.324 21.6844 185.656 22.032 185.913 22.4702C186.17 22.8933 186.298 23.4524 186.298 24.1476C186.298 25.2204 185.89 26.0742 185.074 26.7089C184.273 27.3436 183.185 27.6609 181.81 27.6609Z"/>
</mask>
<path d="M56.5307 27.3889L51.3853 11.3862H54.9213L58.684 23.6942H57.3013L60.9733 11.3862H63.7613L67.4333 23.6942H66.0733L69.8133 11.3862H73.3267L68.1813 27.3889H65.3933L61.6987 15.0809H63.0133L59.3187 27.3889H56.5307ZM78.9583 27.6382C77.7645 27.6382 76.6992 27.3964 75.7623 26.9129C74.8405 26.4142 74.1152 25.7267 73.5863 24.8502C73.0574 23.9738 72.7929 22.984 72.7929 21.8809C72.7929 20.7778 73.0498 19.7956 73.5636 18.9342C74.0925 18.0578 74.8027 17.3702 75.6943 16.8716C76.5858 16.3729 77.5907 16.1236 78.7089 16.1236C79.7969 16.1236 80.7565 16.3578 81.5876 16.8262C82.4187 17.2947 83.0685 17.9444 83.5369 18.7756C84.0205 19.6067 84.2623 20.5587 84.2623 21.6316C84.2623 21.828 84.2472 22.0396 84.2169 22.2662C84.2018 22.4778 84.164 22.7271 84.1036 23.0142L74.6063 23.0369V20.6569L82.6303 20.6342L81.1343 21.6316C81.1192 20.9969 81.0209 20.4756 80.8396 20.0676C80.6583 19.6444 80.3863 19.3271 80.0236 19.1156C79.676 18.8889 79.2454 18.7756 78.7316 18.7756C78.1876 18.7756 77.7116 18.904 77.3036 19.1609C76.9107 19.4027 76.6009 19.7502 76.3743 20.2036C76.1627 20.6569 76.0569 21.2084 76.0569 21.8582C76.0569 22.508 76.1703 23.0671 76.3969 23.5356C76.6387 23.9889 76.9712 24.344 77.3943 24.6009C77.8325 24.8427 78.3463 24.9636 78.9356 24.9636C79.4796 24.9636 79.9707 24.8729 80.4089 24.6916C80.8472 24.4951 81.2325 24.208 81.5649 23.8302L83.4689 25.7342C82.9249 26.3689 82.2676 26.8449 81.4969 27.1622C80.7263 27.4796 79.88 27.6382 78.9583 27.6382ZM92.2829 27.6156C91.5425 27.6156 90.8625 27.4644 90.2429 27.1622C89.6233 26.8449 89.1171 26.4293 88.7242 25.9156C88.3313 25.3867 88.1047 24.7973 88.0442 24.1476V19.5009C88.1047 18.8511 88.3313 18.2769 88.7242 17.7782C89.1171 17.2644 89.6233 16.864 90.2429 16.5769C90.8625 16.2898 91.5425 16.1462 92.2829 16.1462C93.3256 16.1462 94.2473 16.3956 95.0482 16.8942C95.8642 17.3929 96.4989 18.0729 96.9522 18.9342C97.4207 19.7956 97.6549 20.7778 97.6549 21.8809C97.6549 22.984 97.4207 23.9662 96.9522 24.8276C96.4989 25.6889 95.8642 26.3689 95.0482 26.8676C94.2473 27.3662 93.3256 27.6156 92.2829 27.6156ZM85.9362 27.3889V10.9329H89.4042V19.0702L88.8376 21.7449L89.3589 24.4196V27.3889H85.9362ZM91.6709 24.4876C92.1545 24.4876 92.5776 24.3742 92.9402 24.1476C93.318 23.9209 93.6127 23.6111 93.8242 23.2182C94.0358 22.8253 94.1416 22.3796 94.1416 21.8809C94.1416 21.3671 94.0358 20.9138 93.8242 20.5209C93.6127 20.128 93.318 19.8258 92.9402 19.6142C92.5776 19.3876 92.1545 19.2742 91.6709 19.2742C91.1873 19.2742 90.7567 19.3876 90.3789 19.6142C90.0011 19.8258 89.7065 20.128 89.4949 20.5209C89.2985 20.9138 89.2002 21.3671 89.2002 21.8809C89.2002 22.3947 89.306 22.848 89.5176 23.2409C89.7291 23.6338 90.0162 23.9436 90.3789 24.1702C90.7567 24.3818 91.1873 24.4876 91.6709 24.4876ZM107.327 27.6382C106.134 27.6382 105.023 27.4342 103.995 27.0262C102.983 26.6031 102.091 26.0138 101.321 25.2582C100.565 24.5027 99.9758 23.6262 99.5527 22.6289C99.1296 21.6164 98.918 20.5284 98.918 19.3649C98.918 18.2013 99.1296 17.1209 99.5527 16.1236C99.9758 15.1111 100.565 14.2347 101.321 13.4942C102.076 12.7538 102.96 12.1796 103.973 11.7716C105 11.3484 106.111 11.1369 107.305 11.1369C108.574 11.1369 109.7 11.3409 110.682 11.7489C111.679 12.1569 112.548 12.716 113.289 13.4262L110.909 15.8289C110.486 15.3756 109.972 15.0204 109.367 14.7636C108.778 14.5067 108.09 14.3782 107.305 14.3782C106.61 14.3782 105.967 14.4991 105.378 14.7409C104.804 14.9676 104.305 15.3 103.882 15.7382C103.474 16.1764 103.149 16.7053 102.907 17.3249C102.681 17.9444 102.567 18.6244 102.567 19.3649C102.567 20.1204 102.681 20.808 102.907 21.4276C103.149 22.0471 103.474 22.576 103.882 23.0142C104.305 23.4524 104.804 23.7924 105.378 24.0342C105.967 24.276 106.61 24.3969 107.305 24.3969C108.121 24.3969 108.831 24.2684 109.435 24.0116C110.04 23.7547 110.561 23.3996 110.999 22.9462L113.402 25.3489C112.631 26.0591 111.747 26.6182 110.75 27.0262C109.768 27.4342 108.627 27.6382 107.327 27.6382ZM115.044 27.3889V16.3729H118.512V27.3889H115.044ZM118.512 21.3369L117.062 20.2036C117.349 18.9191 117.832 17.9218 118.512 17.2116C119.192 16.5013 120.137 16.1462 121.346 16.1462C121.875 16.1462 122.335 16.2293 122.728 16.3956C123.136 16.5467 123.491 16.7884 123.794 17.1209L121.731 19.7276C121.58 19.5613 121.391 19.4329 121.164 19.3422C120.938 19.2516 120.681 19.2062 120.394 19.2062C119.819 19.2062 119.359 19.3876 119.011 19.7502C118.679 20.0978 118.512 20.6267 118.512 21.3369ZM129.009 27.6156C127.996 27.6156 127.09 27.3662 126.289 26.8676C125.503 26.3689 124.876 25.6889 124.408 24.8276C123.954 23.9662 123.728 22.984 123.728 21.8809C123.728 20.7778 123.954 19.7956 124.408 18.9342C124.876 18.0729 125.503 17.3929 126.289 16.8942C127.09 16.3956 127.996 16.1462 129.009 16.1462C129.749 16.1462 130.414 16.2898 131.004 16.5769C131.608 16.864 132.099 17.2644 132.477 17.7782C132.855 18.2769 133.066 18.8511 133.112 19.5009V24.2609C133.066 24.9107 132.855 25.4924 132.477 26.0062C132.114 26.5049 131.631 26.8978 131.026 27.1849C130.422 27.472 129.749 27.6156 129.009 27.6156ZM129.712 24.4876C130.452 24.4876 131.049 24.2458 131.502 23.7622C131.956 23.2636 132.182 22.6364 132.182 21.8809C132.182 21.3671 132.076 20.9138 131.865 20.5209C131.668 20.128 131.381 19.8258 131.004 19.6142C130.641 19.3876 130.218 19.2742 129.734 19.2742C129.251 19.2742 128.82 19.3876 128.442 19.6142C128.08 19.8258 127.785 20.128 127.558 20.5209C127.347 20.9138 127.241 21.3671 127.241 21.8809C127.241 22.3796 127.347 22.8253 127.558 23.2182C127.77 23.6111 128.064 23.9209 128.442 24.1476C128.82 24.3742 129.243 24.4876 129.712 24.4876ZM132.046 27.3889V24.4196L132.568 21.7449L132.046 19.0702V16.3729H135.446V27.3889H132.046ZM139.293 27.3889V15.4209C139.293 14.5293 139.49 13.7284 139.883 13.0182C140.291 12.2929 140.857 11.7262 141.583 11.3182C142.308 10.8951 143.169 10.6836 144.167 10.6836C144.922 10.6836 145.58 10.812 146.139 11.0689C146.713 11.3107 147.212 11.6507 147.635 12.0889L145.459 14.2649C145.308 14.1138 145.134 14.0004 144.937 13.9249C144.756 13.8342 144.537 13.7889 144.28 13.7889C143.812 13.7889 143.441 13.9249 143.169 14.1969C142.897 14.4689 142.761 14.8391 142.761 15.3076V27.3889H139.293ZM136.868 19.3196V16.3729H145.935V19.3196H136.868ZM148.683 27.3889V11.8169H152.151V27.3889H148.683ZM146.189 19.3196V16.3729H154.644V19.3196H146.189ZM161.391 27.6382C160.197 27.6382 159.131 27.3964 158.195 26.9129C157.273 26.4142 156.547 25.7267 156.019 24.8502C155.49 23.9738 155.225 22.984 155.225 21.8809C155.225 20.7778 155.482 19.7956 155.996 18.9342C156.525 18.0578 157.235 17.3702 158.127 16.8716C159.018 16.3729 160.023 16.1236 161.141 16.1236C162.229 16.1236 163.189 16.3578 164.02 16.8262C164.851 17.2947 165.501 17.9444 165.969 18.7756C166.453 19.6067 166.695 20.5587 166.695 21.6316C166.695 21.828 166.679 22.0396 166.649 22.2662C166.634 22.4778 166.596 22.7271 166.536 23.0142L157.039 23.0369V20.6569L165.063 20.6342L163.567 21.6316C163.551 20.9969 163.453 20.4756 163.272 20.0676C163.091 19.6444 162.819 19.3271 162.456 19.1156C162.108 18.8889 161.678 18.7756 161.164 18.7756C160.62 18.7756 160.144 18.904 159.736 19.1609C159.343 19.4027 159.033 19.7502 158.807 20.2036C158.595 20.6569 158.489 21.2084 158.489 21.8582C158.489 22.508 158.603 23.0671 158.829 23.5356C159.071 23.9889 159.403 24.344 159.827 24.6009C160.265 24.8427 160.779 24.9636 161.368 24.9636C161.912 24.9636 162.403 24.8729 162.841 24.6916C163.279 24.4951 163.665 24.208 163.997 23.8302L165.901 25.7342C165.357 26.3689 164.7 26.8449 163.929 27.1622C163.159 27.4796 162.312 27.6382 161.391 27.6382ZM168.369 27.3889V16.3729H171.837V27.3889H168.369ZM171.837 21.3369L170.386 20.2036C170.673 18.9191 171.157 17.9218 171.837 17.2116C172.517 16.5013 173.461 16.1462 174.67 16.1462C175.199 16.1462 175.66 16.2293 176.053 16.3956C176.461 16.5467 176.816 16.7884 177.118 17.1209L175.055 19.7276C174.904 19.5613 174.715 19.4329 174.489 19.3422C174.262 19.2516 174.005 19.2062 173.718 19.2062C173.144 19.2062 172.683 19.3876 172.335 19.7502C172.003 20.0978 171.837 20.6267 171.837 21.3369ZM181.81 27.6609C181.16 27.6609 180.518 27.5778 179.884 27.4116C179.264 27.2453 178.682 27.0111 178.138 26.7089C177.609 26.3916 177.156 26.0289 176.778 25.6209L178.75 23.6262C179.113 24.0191 179.544 24.3289 180.042 24.5556C180.541 24.7671 181.085 24.8729 181.674 24.8729C182.082 24.8729 182.392 24.8124 182.604 24.6916C182.83 24.5707 182.944 24.4044 182.944 24.1929C182.944 23.9209 182.808 23.7169 182.536 23.5809C182.279 23.4298 181.946 23.3013 181.538 23.1956C181.13 23.0747 180.7 22.9462 180.246 22.8102C179.793 22.6742 179.362 22.4853 178.954 22.2436C178.546 22.0018 178.214 21.6693 177.957 21.2462C177.7 20.808 177.572 20.2564 177.572 19.5916C177.572 18.8813 177.753 18.2693 178.116 17.7556C178.478 17.2267 178.992 16.8111 179.657 16.5089C180.322 16.2067 181.1 16.0556 181.992 16.0556C182.928 16.0556 183.79 16.2218 184.576 16.5542C185.376 16.8716 186.026 17.3476 186.525 17.9822L184.553 19.9769C184.205 19.5689 183.812 19.2818 183.374 19.1156C182.951 18.9493 182.536 18.8662 182.128 18.8662C181.735 18.8662 181.44 18.9267 181.244 19.0476C181.047 19.1533 180.949 19.312 180.949 19.5236C180.949 19.7502 181.077 19.9316 181.334 20.0676C181.591 20.2036 181.924 20.3244 182.332 20.4302C182.74 20.536 183.17 20.6644 183.624 20.8156C184.077 20.9667 184.508 21.1707 184.916 21.4276C185.324 21.6844 185.656 22.032 185.913 22.4702C186.17 22.8933 186.298 23.4524 186.298 24.1476C186.298 25.2204 185.89 26.0742 185.074 26.7089C184.273 27.3436 183.185 27.6609 181.81 27.6609Z" fill="url(#paint1_linear_15_12)"/>
<path d="M56.5307 27.3889L55.3319 27.7743L55.6128 28.6481H56.5307V27.3889ZM51.3853 11.3862V10.127H49.6577L50.1865 11.7717L51.3853 11.3862ZM54.9213 11.3862L56.1256 11.0181L55.8532 10.127H54.9213V11.3862ZM58.684 23.6942V24.9535H60.3858L59.8882 23.3261L58.684 23.6942ZM57.3013 23.6942L56.0946 23.3342L55.6115 24.9535H57.3013V23.6942ZM60.9733 11.3862V10.127H60.0349L59.7666 11.0262L60.9733 11.3862ZM63.7613 11.3862L64.968 11.0262L64.6997 10.127H63.7613V11.3862ZM67.4333 23.6942V24.9535H69.1231L68.64 23.3342L67.4333 23.6942ZM66.0733 23.6942L64.8685 23.3281L64.3746 24.9535H66.0733V23.6942ZM69.8133 11.3862V10.127H68.8799L68.6085 11.0201L69.8133 11.3862ZM73.3267 11.3862L74.5255 11.7717L75.0543 10.127H73.3267V11.3862ZM68.1813 27.3889V28.6481H69.0992L69.3801 27.7743L68.1813 27.3889ZM65.3933 27.3889L64.1872 27.7509L64.4566 28.6481H65.3933V27.3889ZM61.6987 15.0809V13.8216H60.0059L60.4926 15.4429L61.6987 15.0809ZM63.0133 15.0809L64.2194 15.4429L64.7061 13.8216H63.0133V15.0809ZM59.3187 27.3889V28.6481H60.2554L60.5248 27.7509L59.3187 27.3889ZM57.7295 27.0034L52.5841 11.0008L50.1865 11.7717L55.3319 27.7743L57.7295 27.0034ZM51.3853 12.6455H54.9213V10.127H51.3853V12.6455ZM53.7171 11.7544L57.4798 24.0624L59.8882 23.3261L56.1256 11.0181L53.7171 11.7544ZM58.684 22.435H57.3013V24.9535H58.684V22.435ZM58.508 24.0542L62.18 11.7462L59.7666 11.0262L56.0946 23.3342L58.508 24.0542ZM60.9733 12.6455H63.7613V10.127H60.9733V12.6455ZM62.5546 11.7462L66.2266 24.0542L68.64 23.3342L64.968 11.0262L62.5546 11.7462ZM67.4333 22.435H66.0733V24.9535H67.4333V22.435ZM67.2782 24.0603L71.0182 11.7523L68.6085 11.0201L64.8685 23.3281L67.2782 24.0603ZM69.8133 12.6455H73.3267V10.127H69.8133V12.6455ZM72.1279 11.0008L66.9825 27.0034L69.3801 27.7743L74.5255 11.7717L72.1279 11.0008ZM68.1813 26.1296H65.3933V28.6481H68.1813V26.1296ZM66.5994 27.0268L62.9048 14.7188L60.4926 15.4429L64.1872 27.7509L66.5994 27.0268ZM61.6987 16.3401H63.0133V13.8216H61.6987V16.3401ZM61.8072 14.7188L58.1126 27.0268L60.5248 27.7509L64.2194 15.4429L61.8072 14.7188ZM59.3187 26.1296H56.5307V28.6481H59.3187V26.1296ZM75.7623 26.9129L75.1631 28.0205L75.1738 28.0263L75.1847 28.0319L75.7623 26.9129ZM73.5863 24.8502L74.6644 24.1996L73.5863 24.8502ZM73.5636 18.9342L72.4854 18.2836L72.4821 18.2891L73.5636 18.9342ZM83.5369 18.7756L82.4399 19.3939L82.4442 19.4014L82.4485 19.4088L83.5369 18.7756ZM84.2169 22.2662L82.9687 22.0998L82.9636 22.138L82.9609 22.1765L84.2169 22.2662ZM84.1036 23.0142L84.1066 24.2735L85.1259 24.271L85.3359 23.2736L84.1036 23.0142ZM74.6063 23.0369H73.347V24.2992L74.6093 24.2961L74.6063 23.0369ZM74.6063 20.6569L74.6027 19.3976L73.347 19.4012V20.6569H74.6063ZM82.6303 20.6342L83.3288 21.682L86.807 19.3632L82.6267 19.375L82.6303 20.6342ZM81.1343 21.6316L79.8754 21.6615L79.9298 23.948L81.8328 22.6793L81.1343 21.6316ZM80.8396 20.0676L79.6822 20.5636L79.6855 20.5713L79.6889 20.579L80.8396 20.0676ZM80.0236 19.1156L79.3357 20.1703L79.362 20.1875L79.3891 20.2033L80.0236 19.1156ZM77.3036 19.1609L77.9636 20.2334L77.9746 20.2265L77.3036 19.1609ZM76.3743 20.2036L75.248 19.6404L75.2403 19.6556L75.2332 19.671L76.3743 20.2036ZM76.3969 23.5356L75.2634 24.084L75.2742 24.1063L75.2858 24.1281L76.3969 23.5356ZM77.3943 24.6009L76.7407 25.6773L76.7631 25.6908L76.786 25.7035L77.3943 24.6009ZM80.4089 24.6916L80.8904 25.8551L80.9073 25.8481L80.924 25.8406L80.4089 24.6916ZM81.5649 23.8302L82.4554 22.9398L81.5063 21.9907L80.6196 22.9983L81.5649 23.8302ZM83.4689 25.7342L84.425 26.5537L85.1839 25.6684L84.3594 24.8438L83.4689 25.7342ZM81.4969 27.1622L81.0175 25.9978L81.4969 27.1622ZM78.9583 26.379C77.9386 26.379 77.0757 26.1737 76.3398 25.7939L75.1847 28.0319C76.3226 28.6192 77.5904 28.8975 78.9583 28.8975V26.379ZM76.3614 25.8053C75.6323 25.4109 75.0744 24.879 74.6644 24.1996L72.5081 25.5008C73.1559 26.5743 74.0487 27.4176 75.1631 28.0205L76.3614 25.8053ZM74.6644 24.1996C74.2632 23.5347 74.0522 22.7731 74.0522 21.8809H71.5337C71.5337 23.1949 71.8516 24.4128 72.5081 25.5008L74.6644 24.1996ZM74.0522 21.8809C74.0522 20.9815 74.2591 20.2264 74.6451 19.5793L72.4821 18.2891C71.8406 19.3647 71.5337 20.574 71.5337 21.8809H74.0522ZM74.6418 19.5848C75.058 18.8951 75.6086 18.3623 76.309 17.9706L75.0796 15.7725C73.9968 16.3781 73.127 17.2204 72.4854 18.2836L74.6418 19.5848ZM76.309 17.9706C76.9953 17.5867 77.785 17.3828 78.7089 17.3828V14.8643C77.3964 14.8643 76.1764 15.159 75.0796 15.7725L76.309 17.9706ZM78.7089 17.3828C79.6112 17.3828 80.3521 17.5753 80.9693 17.9232L82.2059 15.7292C81.1609 15.1402 79.9827 14.8643 78.7089 14.8643V17.3828ZM80.9693 17.9232C81.6001 18.2788 82.0844 18.763 82.4399 19.3939L84.6339 18.1572C84.0526 17.1259 83.2373 16.3105 82.2059 15.7292L80.9693 17.9232ZM82.4485 19.4088C82.8076 20.0261 83.003 20.7548 83.003 21.6316H85.5215C85.5215 20.3626 85.2334 19.1873 84.6254 18.1423L82.4485 19.4088ZM83.003 21.6316C83.003 21.7642 82.9928 21.9196 82.9687 22.0998L85.4651 22.4326C85.5016 22.1595 85.5215 21.8918 85.5215 21.6316H83.003ZM82.9609 22.1765C82.9511 22.3141 82.9241 22.5041 82.8714 22.7548L85.3359 23.2736C85.404 22.9501 85.4526 22.6415 85.473 22.3559L82.9609 22.1765ZM84.1006 21.755L74.6033 21.7776L74.6093 24.2961L84.1066 24.2735L84.1006 21.755ZM75.8655 23.0369V20.6569H73.347V23.0369H75.8655ZM74.6098 21.9161L82.6338 21.8935L82.6267 19.375L74.6027 19.3976L74.6098 21.9161ZM81.9318 19.5865L80.4358 20.5838L81.8328 22.6793L83.3288 21.682L81.9318 19.5865ZM82.3932 21.6016C82.3756 20.8656 82.2612 20.1656 81.9903 19.5561L79.6889 20.579C79.7807 20.7855 79.8627 21.1282 79.8754 21.6615L82.3932 21.6016ZM81.997 19.5715C81.7202 18.9254 81.2767 18.3887 80.6581 18.0278L79.3891 20.2033C79.4959 20.2656 79.5964 20.3634 79.6822 20.5636L81.997 19.5715ZM80.7115 18.0608C80.1154 17.672 79.4313 17.5163 78.7316 17.5163V20.0348C79.0594 20.0348 79.2367 20.1057 79.3357 20.1703L80.7115 18.0608ZM78.7316 17.5163C77.9815 17.5163 77.2665 17.6962 76.6327 18.0953L77.9746 20.2265C78.1567 20.1118 78.3937 20.0348 78.7316 20.0348V17.5163ZM76.6436 18.0884C76.0314 18.4652 75.5689 18.9986 75.248 19.6404L77.5006 20.7667C77.633 20.5019 77.79 20.3401 77.9636 20.2333L76.6436 18.0884ZM75.2332 19.671C74.9242 20.3331 74.7977 21.0772 74.7977 21.8582H77.3162C77.3162 21.3396 77.4013 20.9807 77.5154 20.7361L75.2332 19.671ZM74.7977 21.8582C74.7977 22.6519 74.936 23.4075 75.2634 24.084L77.5305 22.9871C77.4045 22.7267 77.3162 22.3641 77.3162 21.8582H74.7977ZM75.2858 24.1281C75.6297 24.773 76.1169 25.2985 76.7407 25.6773L78.0478 23.5245C77.8254 23.3895 77.6477 23.2048 77.508 22.943L75.2858 24.1281ZM76.786 25.7035C77.441 26.0649 78.1714 26.2228 78.9356 26.2228V23.7043C78.5211 23.7043 78.224 23.6204 78.0026 23.4983L76.786 25.7035ZM78.9356 26.2228C79.6207 26.2228 80.2787 26.1082 80.8904 25.8551L79.9275 23.528C79.6627 23.6375 79.3385 23.7043 78.9356 23.7043V26.2228ZM80.924 25.8406C81.5346 25.5669 82.0646 25.1686 82.5103 24.6621L80.6196 22.9983C80.4004 23.2474 80.1597 23.4233 79.8938 23.5425L80.924 25.8406ZM80.6745 24.7206L82.5785 26.6246L84.3594 24.8438L82.4554 22.9398L80.6745 24.7206ZM82.5128 24.9147C82.0979 25.3988 81.6037 25.7564 81.0175 25.9978L81.9764 28.3266C82.9315 27.9333 83.752 27.3389 84.425 26.5537L82.5128 24.9147ZM81.0175 25.9978C80.4143 26.2462 79.733 26.379 78.9583 26.379V28.8975C80.0271 28.8975 81.0383 28.7129 81.9764 28.3266L81.0175 25.9978ZM90.2429 27.1622L89.6688 28.283L89.6798 28.2886L89.6908 28.294L90.2429 27.1622ZM88.7242 25.9156L87.7134 26.6665L87.7186 26.6735L87.7239 26.6805L88.7242 25.9156ZM88.0442 24.1476H86.785V24.206L86.7904 24.2642L88.0442 24.1476ZM88.0442 19.5009L86.7904 19.3842L86.785 19.4424V19.5009H88.0442ZM88.7242 17.7782L89.7134 18.5575L89.719 18.5504L89.7245 18.5432L88.7242 17.7782ZM95.0482 16.8942L94.3826 17.9632L94.3916 17.9687L95.0482 16.8942ZM96.9522 18.9342L95.8379 19.5207L95.8419 19.5283L95.846 19.5359L96.9522 18.9342ZM96.9522 24.8276L95.846 24.2259L95.8419 24.2335L95.8379 24.2411L96.9522 24.8276ZM95.0482 26.8676L94.3916 25.793L94.3826 25.7986L95.0482 26.8676ZM85.9362 27.3889H84.677V28.6481H85.9362V27.3889ZM85.9362 10.9329V9.67363H84.677V10.9329H85.9362ZM89.4042 10.9329H90.6635V9.67363H89.4042V10.9329ZM89.4042 19.0702L90.6362 19.3312L90.6635 19.2022V19.0702H89.4042ZM88.8376 21.7449L87.6057 21.4839L87.5526 21.7344L87.6016 21.9858L88.8376 21.7449ZM89.3589 24.4196H90.6182V24.298L90.5949 24.1786L89.3589 24.4196ZM89.3589 27.3889V28.6481H90.6182V27.3889H89.3589ZM92.9402 24.1476L92.2924 23.0677L92.2825 23.0736L92.2728 23.0797L92.9402 24.1476ZM93.8242 23.2182L92.7155 22.6212L92.7155 22.6212L93.8242 23.2182ZM93.8242 20.5209L92.7155 21.1179L92.7155 21.1179L93.8242 20.5209ZM92.9402 19.6142L92.2728 20.6821L92.2985 20.6981L92.325 20.7129L92.9402 19.6142ZM90.3789 19.6142L90.9942 20.7129L91.0106 20.7037L91.0268 20.694L90.3789 19.6142ZM89.4949 20.5209L88.3862 19.9239L88.3771 19.9407L88.3686 19.9577L89.4949 20.5209ZM89.5176 23.2409L90.6263 22.6439L90.6263 22.6439L89.5176 23.2409ZM90.3789 24.1702L89.7115 25.2381L89.7372 25.2541L89.7636 25.2689L90.3789 24.1702ZM92.2829 26.3563C91.7193 26.3563 91.23 26.2427 90.795 26.0304L89.6908 28.294C90.4949 28.6862 91.3656 28.8748 92.2829 28.8748V26.3563ZM90.817 26.0414C90.3513 25.8029 89.9951 25.5044 89.7245 25.1506L87.7239 26.6805C88.2392 27.3543 88.8954 27.8869 89.6688 28.283L90.817 26.0414ZM89.7351 25.1646C89.4784 24.819 89.3369 24.4487 89.2981 24.0309L86.7904 24.2642C86.8724 25.146 87.1843 25.9543 87.7134 26.6665L89.7351 25.1646ZM89.3035 24.1476V19.5009H86.785V24.1476H89.3035ZM89.2981 19.6175C89.3367 19.2024 89.4752 18.8599 89.7134 18.5575L87.7351 16.9989C87.1875 17.6939 86.8727 18.4998 86.7904 19.3842L89.2981 19.6175ZM89.7245 18.5432C89.9865 18.2006 90.3274 17.9256 90.7724 17.7194L89.7134 15.4343C88.9193 15.8024 88.2478 16.3283 87.7239 17.0133L89.7245 18.5432ZM90.7724 17.7194C91.2124 17.5155 91.7097 17.4055 92.2829 17.4055V14.887C91.3752 14.887 90.5125 15.064 89.7134 15.4343L90.7724 17.7194ZM92.2829 17.4055C93.1158 17.4055 93.8021 17.6017 94.3826 17.9632L95.7138 15.8252C94.6926 15.1894 93.5353 14.887 92.2829 14.887V17.4055ZM94.3916 17.9687C95.0102 18.3468 95.4884 18.8566 95.8379 19.5207L98.0666 18.3477C97.5095 17.2892 96.7183 16.439 95.7049 15.8197L94.3916 17.9687ZM95.846 19.5359C96.202 20.1904 96.3956 20.9613 96.3956 21.8809H98.9142C98.9142 20.5943 98.6394 19.4007 98.0585 18.3326L95.846 19.5359ZM96.3956 21.8809C96.3956 22.8005 96.202 23.5713 95.846 24.2259L98.0585 25.4292C98.6394 24.3611 98.9142 23.1675 98.9142 21.8809H96.3956ZM95.8379 24.2411C95.4884 24.9052 95.0102 25.415 94.3916 25.793L95.7049 27.9421C96.7183 27.3228 97.5095 26.4726 98.0666 25.414L95.8379 24.2411ZM94.3826 25.7986C93.8021 26.16 93.1158 26.3563 92.2829 26.3563V28.8748C93.5353 28.8748 94.6926 28.5724 95.7138 27.9365L94.3826 25.7986ZM87.1955 27.3889V10.9329H84.677V27.3889H87.1955ZM85.9362 12.1921H89.4042V9.67363H85.9362V12.1921ZM88.145 10.9329V19.0702H90.6635V10.9329H88.145ZM88.1723 18.8092L87.6057 21.4839L90.0695 22.0059L90.6362 19.3312L88.1723 18.8092ZM87.6016 21.9858L88.1229 24.6605L90.5949 24.1786L90.0736 21.504L87.6016 21.9858ZM88.0996 24.4196V27.3889H90.6182V24.4196H88.0996ZM89.3589 26.1296H85.9362V28.6481H89.3589V26.1296ZM91.6709 25.7468C92.3588 25.7468 93.0196 25.5829 93.6076 25.2154L92.2728 23.0797C92.1356 23.1655 91.9501 23.2283 91.6709 23.2283V25.7468ZM93.5881 25.2274C94.1628 24.8826 94.6155 24.4049 94.933 23.8152L92.7155 22.6212C92.6099 22.8173 92.4733 22.9592 92.2924 23.0677L93.5881 25.2274ZM94.933 23.8152C95.2545 23.2181 95.4008 22.563 95.4008 21.8809H92.8823C92.8823 22.1961 92.8171 22.4325 92.7155 22.6212L94.933 23.8152ZM95.4008 21.8809C95.4008 21.1905 95.2574 20.5263 94.933 19.9239L92.7155 21.1179C92.8142 21.3012 92.8823 21.5437 92.8823 21.8809H95.4008ZM94.933 19.9239C94.6116 19.3271 94.1488 18.8477 93.5555 18.5155L92.325 20.7129C92.4873 20.8038 92.6137 20.9289 92.7155 21.1179L94.933 19.9239ZM93.6076 18.5464C93.0196 18.1788 92.3588 18.015 91.6709 18.015V20.5335C91.9501 20.5335 92.1356 20.5963 92.2728 20.6821L93.6076 18.5464ZM91.6709 18.015C90.9821 18.015 90.3233 18.179 89.731 18.5344L91.0268 20.694C91.1901 20.5961 91.3926 20.5335 91.6709 20.5335V18.015ZM89.7636 18.5155C89.1704 18.8477 88.7075 19.3271 88.3862 19.9239L90.6036 21.1179C90.7054 20.9289 90.8319 20.8038 90.9942 20.7129L89.7636 18.5155ZM88.3686 19.9577C88.071 20.5528 87.941 21.2047 87.941 21.8809H90.4595C90.4595 21.5295 90.5259 21.2747 90.6212 21.084L88.3686 19.9577ZM87.941 21.8809C87.941 22.5713 88.0844 23.2354 88.4088 23.8379L90.6263 22.6439C90.5276 22.4606 90.4595 22.2181 90.4595 21.8809H87.941ZM88.4088 23.8379C88.7194 24.4147 89.1551 24.8903 89.7115 25.2381L91.0463 23.1024C90.8774 22.9968 90.7388 22.8528 90.6263 22.6439L88.4088 23.8379ZM89.7636 25.2689C90.3506 25.5976 90.9976 25.7468 91.6709 25.7468V23.2283C91.3771 23.2283 91.1628 23.1659 90.9942 23.0715L89.7636 25.2689ZM103.995 27.0262L103.51 28.1881L103.52 28.1924L103.531 28.1966L103.995 27.0262ZM101.321 25.2582L100.43 26.1487L100.439 26.1574L101.321 25.2582ZM99.5527 22.6289L98.3908 23.1145L98.3935 23.1207L99.5527 22.6289ZM99.5527 16.1236L100.712 16.6154L100.715 16.6091L99.5527 16.1236ZM101.321 13.4942L102.202 14.3936L102.202 14.3936L101.321 13.4942ZM103.973 11.7716L104.443 12.9396L104.452 12.936L103.973 11.7716ZM110.682 11.7489L110.199 12.9118L110.205 12.9144L110.682 11.7489ZM113.289 13.4262L114.183 14.3124L115.084 13.4033L114.16 12.5174L113.289 13.4262ZM110.909 15.8289L109.988 16.6881L110.882 17.6455L111.803 16.7151L110.909 15.8289ZM109.367 14.7636L108.864 15.918L108.875 15.9225L109.367 14.7636ZM105.378 14.7409L105.84 15.9122L105.848 15.9091L105.856 15.9059L105.378 14.7409ZM103.882 15.7382L102.976 14.8635L102.968 14.8718L102.96 14.8801L103.882 15.7382ZM102.907 17.3249L101.734 16.8671L101.729 16.8796L101.725 16.8922L102.907 17.3249ZM102.907 21.4276L101.725 21.8602L101.729 21.8728L101.734 21.8853L102.907 21.4276ZM103.882 23.0142L102.96 23.8723L102.968 23.8807L102.976 23.8889L103.882 23.0142ZM105.378 24.0342L104.889 25.1948L104.9 25.1992L105.378 24.0342ZM110.999 22.9462L111.89 22.0558L110.984 21.1501L110.094 22.071L110.999 22.9462ZM113.402 25.3489L114.255 26.2749L115.22 25.386L114.292 24.4585L113.402 25.3489ZM110.75 27.0262L110.273 25.8607L110.267 25.8633L110.75 27.0262ZM107.327 26.379C106.28 26.379 105.328 26.2006 104.46 25.8558L103.531 28.1966C104.718 28.6679 105.987 28.8975 107.327 28.8975V26.379ZM104.481 25.8643C103.613 25.5018 102.857 25.0008 102.202 24.359L100.439 26.1574C101.326 27.0268 102.352 27.7044 103.51 28.1881L104.481 25.8643ZM102.211 24.3678C101.572 23.7282 101.073 22.9876 100.712 22.1371L98.3935 23.1207C98.8788 24.2648 99.5587 25.2771 100.43 26.1486L102.211 24.3678ZM100.715 22.1433C100.36 21.2938 100.177 20.3719 100.177 19.3649H97.6588C97.6588 20.6849 97.8996 21.939 98.3908 23.1144L100.715 22.1433ZM100.177 19.3649C100.177 18.3577 100.36 17.4459 100.712 16.6154L98.3935 15.6317C97.8996 16.7959 97.6588 18.045 97.6588 19.3649H100.177ZM100.715 16.6091C101.075 15.7461 101.571 15.0118 102.202 14.3936L100.439 12.5948C99.5591 13.4575 98.8764 14.4762 98.3908 15.638L100.715 16.6091ZM102.202 14.3936C102.836 13.7725 103.579 13.2878 104.443 12.9395L103.502 10.6036C102.341 11.0713 101.317 11.7351 100.439 12.5948L102.202 14.3936ZM104.452 12.936C105.317 12.58 106.263 12.3961 107.305 12.3961V9.87763C105.959 9.87763 104.684 10.1169 103.493 10.6071L104.452 12.936ZM107.305 12.3961C108.44 12.3961 109.396 12.5784 110.199 12.9118L111.165 10.586C110.003 10.1033 108.708 9.87763 107.305 9.87763V12.3961ZM110.205 12.9144C111.063 13.2655 111.797 13.7399 112.417 14.335L114.16 12.5174C113.3 11.6921 112.295 11.0483 111.159 10.5834L110.205 12.9144ZM112.394 12.54L110.014 14.9427L111.803 16.7151L114.183 14.3124L112.394 12.54ZM111.829 14.9697C111.279 14.3801 110.617 13.9262 109.86 13.6046L108.875 15.9225C109.327 16.1146 109.692 16.371 109.988 16.6881L111.829 14.9697ZM109.871 13.6092C109.091 13.2695 108.226 13.119 107.305 13.119V15.6375C107.955 15.6375 108.465 15.7438 108.864 15.9179L109.871 13.6092ZM107.305 13.119C106.461 13.119 105.654 13.2664 104.9 13.5759L105.856 15.9059C106.28 15.7318 106.758 15.6375 107.305 15.6375V13.119ZM104.916 13.5696C104.176 13.8614 103.526 14.2941 102.976 14.8635L104.788 16.6129C105.084 16.3059 105.431 16.0737 105.84 15.9122L104.916 13.5696ZM102.96 14.8801C102.433 15.4469 102.027 16.1158 101.734 16.8671L104.08 17.7827C104.271 17.2948 104.515 16.906 104.804 16.5963L102.96 14.8801ZM101.725 16.8922C101.442 17.6663 101.308 18.4948 101.308 19.3649H103.827C103.827 18.7541 103.92 18.2226 104.09 17.7575L101.725 16.8922ZM101.308 19.3649C101.308 20.2469 101.441 21.0835 101.725 21.8602L104.09 20.9949C103.921 20.5325 103.827 19.994 103.827 19.3649H101.308ZM101.734 21.8853C102.027 22.6366 102.433 23.3055 102.96 23.8723L104.804 22.1561C104.515 21.8465 104.271 21.4576 104.08 20.9698L101.734 21.8853ZM102.976 23.8889C103.52 24.4525 104.162 24.8885 104.889 25.1948L105.867 22.8736C105.446 22.6964 105.09 22.4524 104.788 22.1395L102.976 23.8889ZM104.9 25.1992C105.654 25.5087 106.461 25.6561 107.305 25.6561V23.1376C106.758 23.1376 106.28 23.0433 105.856 22.8692L104.9 25.1992ZM107.305 25.6561C108.25 25.6561 109.135 25.5075 109.928 25.1705L108.943 22.8526C108.527 23.0293 107.991 23.1376 107.305 23.1376V25.6561ZM109.928 25.1705C110.681 24.8504 111.344 24.4011 111.905 23.8214L110.094 22.071C109.778 22.398 109.399 22.6589 108.943 22.8526L109.928 25.1705ZM110.109 23.8366L112.512 26.2393L114.292 24.4585L111.89 22.0558L110.109 23.8366ZM112.549 24.4229C111.891 25.0286 111.136 25.5079 110.273 25.8607L111.227 28.1917C112.359 27.7286 113.371 27.0896 114.255 26.2749L112.549 24.4229ZM110.267 25.8633C109.468 26.1953 108.497 26.379 107.327 26.379V28.8975C108.757 28.8975 110.068 28.6732 111.233 28.1891L110.267 25.8633ZM115.044 27.3889H113.785V28.6481H115.044V27.3889ZM115.044 16.3729V15.1136H113.785V16.3729H115.044ZM118.512 16.3729H119.772V15.1136H118.512V16.3729ZM118.512 27.3889V28.6481H119.772V27.3889H118.512ZM118.512 21.3369L117.737 22.3292L119.772 23.9187V21.3369H118.512ZM117.062 20.2036L115.833 19.9289L115.659 20.7058L116.286 21.1959L117.062 20.2036ZM118.512 17.2116L119.422 18.0824L118.512 17.2116ZM122.728 16.3956L122.238 17.5553L122.264 17.5665L122.291 17.5764L122.728 16.3956ZM123.794 17.1209L124.781 17.9023L125.444 17.0644L124.725 16.2738L123.794 17.1209ZM121.731 19.7276L120.799 20.5746L121.798 21.6728L122.718 20.509L121.731 19.7276ZM121.164 19.3422L120.697 20.5114L120.697 20.5114L121.164 19.3422ZM119.011 19.7502L118.102 18.8789L118.101 18.8798L119.011 19.7502ZM116.304 27.3889V16.3729H113.785V27.3889H116.304ZM115.044 17.6321H118.512V15.1136H115.044V17.6321ZM117.253 16.3729V27.3889H119.772V16.3729H117.253ZM118.512 26.1296H115.044V28.6481H118.512V26.1296ZM119.288 20.3446L117.837 19.2112L116.286 21.1959L117.737 22.3292L119.288 20.3446ZM118.291 20.4783C118.544 19.3444 118.946 18.5797 119.422 18.0824L117.603 16.3407C116.719 17.2639 116.153 18.4938 115.833 19.9289L118.291 20.4783ZM119.422 18.0824C119.812 17.6752 120.396 17.4055 121.346 17.4055V14.887C119.878 14.887 118.573 15.3274 117.603 16.3407L119.422 18.0824ZM121.346 17.4055C121.745 17.4055 122.032 17.4685 122.238 17.5553L123.219 15.2358C122.638 14.9902 122.004 14.887 121.346 14.887V17.4055ZM122.291 17.5764C122.503 17.6551 122.691 17.7797 122.862 17.968L124.725 16.2738C124.292 15.7972 123.769 15.4382 123.166 15.2147L122.291 17.5764ZM122.806 16.3395L120.743 18.9461L122.718 20.509L124.781 17.9023L122.806 16.3395ZM122.663 18.8805C122.372 18.5612 122.02 18.3283 121.632 18.173L120.697 20.5114C120.762 20.5375 120.787 20.5615 120.799 20.5746L122.663 18.8805ZM121.632 18.173C121.233 18.0134 120.813 17.947 120.394 17.947V20.4655C120.548 20.4655 120.642 20.4897 120.697 20.5114L121.632 18.173ZM120.394 17.947C119.53 17.947 118.722 18.2321 118.102 18.8789L119.92 20.6215C119.995 20.543 120.109 20.4655 120.394 20.4655V17.947ZM118.101 18.8798C117.457 19.5527 117.253 20.4551 117.253 21.3369H119.772C119.772 20.7983 119.9 20.6429 119.921 20.6206L118.101 18.8798ZM126.289 26.8676L125.614 27.9308L125.623 27.9365L126.289 26.8676ZM124.408 24.8276L123.293 25.414L123.297 25.4216L123.301 25.4292L124.408 24.8276ZM124.408 18.9342L123.301 18.3326L123.297 18.3401L123.293 18.3477L124.408 18.9342ZM126.289 16.8942L125.623 15.8252L125.614 15.831L126.289 16.8942ZM131.004 16.5769L130.452 17.709L130.463 17.7143L131.004 16.5769ZM132.477 17.7782L131.462 18.5242L131.468 18.5315L131.473 18.5386L132.477 17.7782ZM133.112 19.5009H134.371V19.457L134.368 19.4132L133.112 19.5009ZM133.112 24.2609L134.368 24.3485L134.371 24.3048V24.2609H133.112ZM132.477 26.0062L131.462 25.2602L131.459 25.2656L132.477 26.0062ZM131.026 27.1849L130.486 26.0474L130.486 26.0474L131.026 27.1849ZM131.502 23.7622L132.421 24.6235L132.428 24.6164L132.434 24.6093L131.502 23.7622ZM131.865 20.5209L130.739 21.084L130.747 21.1011L130.756 21.1179L131.865 20.5209ZM131.004 19.6142L130.336 20.6821L130.362 20.6981L130.388 20.7129L131.004 19.6142ZM128.442 19.6142L129.077 20.7019L129.083 20.698L129.09 20.694L128.442 19.6142ZM127.558 20.5209L126.468 19.8916L126.458 19.9076L126.45 19.9239L127.558 20.5209ZM127.558 23.2182L126.45 23.8152L126.45 23.8152L127.558 23.2182ZM132.046 27.3889H130.787V28.6481H132.046V27.3889ZM132.046 24.4196L130.81 24.1786L130.787 24.298V24.4196H132.046ZM132.568 21.7449L133.804 21.9858L133.851 21.7449L133.804 21.504L132.568 21.7449ZM132.046 19.0702H130.787V19.1918L130.81 19.3111L132.046 19.0702ZM132.046 16.3729V15.1136H130.787V16.3729H132.046ZM135.446 16.3729H136.706V15.1136H135.446V16.3729ZM135.446 27.3889V28.6481H136.706V27.3889H135.446ZM129.009 26.3563C128.214 26.3563 127.541 26.1637 126.955 25.7986L125.623 27.9365C126.639 28.5687 127.779 28.8748 129.009 28.8748V26.3563ZM126.964 25.8043C126.368 25.4265 125.886 24.9096 125.514 24.2259L123.301 25.4292C123.866 26.4681 124.638 27.3112 125.614 27.9308L126.964 25.8043ZM125.522 24.2411C125.176 23.5835 124.987 22.8072 124.987 21.8809H122.468C122.468 23.1608 122.733 24.349 123.293 25.414L125.522 24.2411ZM124.987 21.8809C124.987 20.9546 125.176 20.1783 125.522 19.5207L123.293 18.3477C122.733 19.4128 122.468 20.6009 122.468 21.8809H124.987ZM125.514 19.5359C125.886 18.8521 126.368 18.3352 126.964 17.9574L125.614 15.831C124.638 16.4505 123.866 17.2936 123.301 18.3326L125.514 19.5359ZM126.955 17.9632C127.541 17.598 128.214 17.4055 129.009 17.4055V14.887C127.779 14.887 126.639 15.1931 125.623 15.8252L126.955 17.9632ZM129.009 17.4055C129.583 17.4055 130.056 17.5158 130.452 17.7089L131.555 15.4448C130.773 15.0638 129.916 14.887 129.009 14.887V17.4055ZM130.463 17.7143C130.889 17.9167 131.214 18.1864 131.462 18.5242L133.491 17.0322C132.984 16.3424 132.327 15.8113 131.544 15.4394L130.463 17.7143ZM131.473 18.5386C131.697 18.834 131.826 19.1722 131.855 19.5885L134.368 19.4132C134.306 18.53 134.012 17.7197 133.481 17.0178L131.473 18.5386ZM131.852 19.5009V24.2609H134.371V19.5009H131.852ZM131.855 24.1732C131.826 24.5905 131.696 24.9429 131.462 25.2602L133.491 26.7522C134.014 26.042 134.306 25.2308 134.368 24.3485L131.855 24.1732ZM131.459 25.2656C131.23 25.5798 130.917 25.8427 130.486 26.0474L131.567 28.3223C132.344 27.9529 132.999 27.43 133.495 26.7469L131.459 25.2656ZM130.486 26.0474C130.068 26.2461 129.583 26.3563 129.009 26.3563V28.8748C129.916 28.8748 130.776 28.6979 131.567 28.3223L130.486 26.0474ZM129.712 25.7468C130.755 25.7468 131.7 25.3921 132.421 24.6235L130.584 22.901C130.397 23.0995 130.149 23.2283 129.712 23.2283V25.7468ZM132.434 24.6093C133.124 23.8503 133.442 22.9088 133.442 21.8809H130.923C130.923 22.364 130.787 22.6768 130.57 22.9151L132.434 24.6093ZM133.442 21.8809C133.442 21.1905 133.298 20.5263 132.974 19.9239L130.756 21.1179C130.855 21.3012 130.923 21.5437 130.923 21.8809H133.442ZM132.991 19.9577C132.684 19.3426 132.22 18.8522 131.619 18.5155L130.388 20.7129C130.543 20.7993 130.653 20.9133 130.739 21.084L132.991 19.9577ZM131.671 18.5464C131.083 18.1788 130.422 18.015 129.734 18.015V20.5335C130.013 20.5335 130.199 20.5963 130.336 20.6821L131.671 18.5464ZM129.734 18.015C129.045 18.015 128.387 18.179 127.794 18.5344L129.09 20.694C129.253 20.5961 129.456 20.5335 129.734 20.5335V18.015ZM127.808 18.5265C127.241 18.8573 126.795 19.3245 126.468 19.8916L128.649 21.1502C128.775 20.9315 128.919 20.7942 129.077 20.7019L127.808 18.5265ZM126.45 19.9239C126.125 20.5263 125.982 21.1905 125.982 21.8809H128.5C128.5 21.5437 128.568 21.3012 128.667 21.1179L126.45 19.9239ZM125.982 21.8809C125.982 22.563 126.128 23.2181 126.45 23.8152L128.667 22.6212C128.565 22.4325 128.5 22.1961 128.5 21.8809H125.982ZM126.45 23.8152C126.767 24.4049 127.22 24.8826 127.794 25.2274L129.09 23.0677C128.909 22.9592 128.773 22.8173 128.667 22.6212L126.45 23.8152ZM127.794 25.2274C128.38 25.5789 129.03 25.7468 129.712 25.7468V23.2283C129.456 23.2283 129.26 23.1695 129.09 23.0677L127.794 25.2274ZM133.306 27.3889V24.4196H130.787V27.3889H133.306ZM133.282 24.6605L133.804 21.9858L131.332 21.504L130.81 24.1786L133.282 24.6605ZM133.804 21.504L133.282 18.8293L130.81 19.3111L131.332 21.9858L133.804 21.504ZM133.306 19.0702V16.3729H130.787V19.0702H133.306ZM132.046 17.6321H135.446V15.1136H132.046V17.6321ZM134.187 16.3729V27.3889H136.706V16.3729H134.187ZM135.446 26.1296H132.046V28.6481H135.446V26.1296ZM139.293 27.3889H138.034V28.6481H139.293V27.3889ZM139.883 13.0182L138.785 12.4008L138.781 12.4087L139.883 13.0182ZM141.583 11.3182L142.2 12.4158L142.209 12.4109L142.217 12.4059L141.583 11.3182ZM146.139 11.0689L145.613 12.2131L145.631 12.2216L145.65 12.2295L146.139 11.0689ZM147.635 12.0889L148.525 12.9793L149.4 12.1044L148.541 11.2142L147.635 12.0889ZM145.459 14.2649L144.568 15.1553L145.459 16.0457L146.349 15.1553L145.459 14.2649ZM144.937 13.9249L144.374 15.0512L144.429 15.0784L144.485 15.1002L144.937 13.9249ZM143.169 14.1969L142.279 13.3065L142.279 13.3065L143.169 14.1969ZM142.761 27.3889V28.6481H144.021V27.3889H142.761ZM136.868 19.3196H135.609V20.5788H136.868V19.3196ZM136.868 16.3729V15.1136H135.609V16.3729H136.868ZM145.935 16.3729H147.194V15.1136H145.935V16.3729ZM145.935 19.3196V20.5788H147.194V19.3196H145.935ZM140.553 27.3889V15.4209H138.034V27.3889H140.553ZM140.553 15.4209C140.553 14.7211 140.705 14.1335 140.985 13.6278L138.781 12.4087C138.275 13.3234 138.034 14.3376 138.034 15.4209H140.553ZM140.98 13.6356C141.275 13.1113 141.676 12.7107 142.2 12.4158L140.965 10.2207C140.039 10.7417 139.306 11.4745 138.785 12.4009L140.98 13.6356ZM142.217 12.4059C142.717 12.1146 143.35 11.9428 144.167 11.9428V9.42429C142.989 9.42429 141.899 9.67559 140.948 10.2305L142.217 12.4059ZM144.167 11.9428C144.781 11.9428 145.252 12.0473 145.613 12.2131L146.664 9.92463C145.907 9.57673 145.063 9.42429 144.167 9.42429V11.9428ZM145.65 12.2295C146.071 12.4067 146.427 12.6507 146.729 12.9636L148.541 11.2142C147.996 10.6506 147.355 10.2146 146.627 9.90831L145.65 12.2295ZM146.744 11.1985L144.568 13.3745L146.349 15.1553L148.525 12.9793L146.744 11.1985ZM146.349 13.3745C146.075 13.1007 145.753 12.8894 145.389 12.7496L144.485 15.1002C144.515 15.1115 144.54 15.1268 144.568 15.1553L146.349 13.3745ZM145.501 12.7986C145.104 12.6003 144.682 12.5296 144.28 12.5296V15.0481C144.392 15.0481 144.408 15.0681 144.374 15.0512L145.501 12.7986ZM144.28 12.5296C143.555 12.5296 142.837 12.7486 142.279 13.3065L144.06 15.0873C144.063 15.0838 144.067 15.0796 144.085 15.0729C144.108 15.0646 144.167 15.0481 144.28 15.0481V12.5296ZM142.279 13.3065C141.721 13.8643 141.502 14.5826 141.502 15.3076H144.021C144.021 15.1943 144.037 15.1354 144.045 15.1128C144.052 15.0946 144.056 15.0909 144.06 15.0873L142.279 13.3065ZM141.502 15.3076V27.3889H144.021V15.3076H141.502ZM142.761 26.1296H139.293V28.6481H142.761V26.1296ZM138.127 19.3196V16.3729H135.609V19.3196H138.127ZM136.868 17.6321H145.935V15.1136H136.868V17.6321ZM144.675 16.3729V19.3196H147.194V16.3729H144.675ZM145.935 18.0603H136.868V20.5788H145.935V18.0603ZM148.683 27.3889H147.423V28.6481H148.683V27.3889ZM148.683 11.8169V10.5576H147.423V11.8169H148.683ZM152.151 11.8169H153.41V10.5576H152.151V11.8169ZM152.151 27.3889V28.6481H153.41V27.3889H152.151ZM146.189 19.3196H144.93V20.5788H146.189V19.3196ZM146.189 16.3729V15.1136H144.93V16.3729H146.189ZM154.644 16.3729H155.903V15.1136H154.644V16.3729ZM154.644 19.3196V20.5788H155.903V19.3196H154.644ZM149.942 27.3889V11.8169H147.423V27.3889H149.942ZM148.683 13.0761H152.151V10.5576H148.683V13.0761ZM150.891 11.8169V27.3889H153.41V11.8169H150.891ZM152.151 26.1296H148.683V28.6481H152.151V26.1296ZM147.448 19.3196V16.3729H144.93V19.3196H147.448ZM146.189 17.6321H154.644V15.1136H146.189V17.6321ZM153.385 16.3729V19.3196H155.903V16.3729H153.385ZM154.644 18.0603H146.189V20.5788H154.644V18.0603ZM158.195 26.9129L157.595 28.0205L157.606 28.0263L157.617 28.0319L158.195 26.9129ZM156.019 24.8502L157.097 24.1996L156.019 24.8502ZM155.996 18.9342L154.918 18.2836L154.914 18.2891L155.996 18.9342ZM165.969 18.7756L164.872 19.3939L164.876 19.4014L164.881 19.4088L165.969 18.7756ZM166.649 22.2662L165.401 22.0998L165.396 22.138L165.393 22.1765L166.649 22.2662ZM166.536 23.0142L166.539 24.2735L167.558 24.271L167.768 23.2736L166.536 23.0142ZM157.039 23.0369H155.779V24.2992L157.042 24.2961L157.039 23.0369ZM157.039 20.6569L157.035 19.3976L155.779 19.4012V20.6569H157.039ZM165.063 20.6342L165.761 21.682L169.239 19.3632L165.059 19.375L165.063 20.6342ZM163.567 21.6316L162.308 21.6615L162.362 23.948L164.265 22.6793L163.567 21.6316ZM163.272 20.0676L162.114 20.5636L162.118 20.5713L162.121 20.579L163.272 20.0676ZM162.456 19.1156L161.768 20.1703L161.794 20.1875L161.821 20.2033L162.456 19.1156ZM159.736 19.1609L160.396 20.2334L160.407 20.2265L159.736 19.1609ZM158.807 20.2036L157.68 19.6404L157.673 19.6556L157.665 19.671L158.807 20.2036ZM158.829 23.5356L157.696 24.084L157.706 24.1063L157.718 24.1281L158.829 23.5356ZM159.827 24.6009L159.173 25.6773L159.195 25.6908L159.218 25.7035L159.827 24.6009ZM162.841 24.6916L163.323 25.8551L163.34 25.8481L163.356 25.8406L162.841 24.6916ZM163.997 23.8302L164.888 22.9398L163.939 21.9907L163.052 22.9983L163.997 23.8302ZM165.901 25.7342L166.857 26.5537L167.616 25.6684L166.792 24.8438L165.901 25.7342ZM163.929 27.1622L163.45 25.9978L163.929 27.1622ZM161.391 26.379C160.371 26.379 159.508 26.1737 158.772 25.7939L157.617 28.0319C158.755 28.6192 160.023 28.8975 161.391 28.8975V26.379ZM158.794 25.8053C158.065 25.4109 157.507 24.879 157.097 24.1996L154.94 25.5008C155.588 26.5743 156.481 27.4176 157.595 28.0205L158.794 25.8053ZM157.097 24.1996C156.696 23.5347 156.484 22.7731 156.484 21.8809H153.966C153.966 23.1949 154.284 24.4128 154.94 25.5008L157.097 24.1996ZM156.484 21.8809C156.484 20.9815 156.691 20.2264 157.077 19.5793L154.914 18.2891C154.273 19.3647 153.966 20.574 153.966 21.8809H156.484ZM157.074 19.5848C157.49 18.8951 158.041 18.3623 158.741 17.9706L157.512 15.7725C156.429 16.3781 155.559 17.2204 154.918 18.2836L157.074 19.5848ZM158.741 17.9706C159.428 17.5867 160.217 17.3828 161.141 17.3828V14.8643C159.829 14.8643 158.609 15.159 157.512 15.7725L158.741 17.9706ZM161.141 17.3828C162.043 17.3828 162.784 17.5753 163.402 17.9232L164.638 15.7292C163.593 15.1402 162.415 14.8643 161.141 14.8643V17.3828ZM163.402 17.9232C164.032 18.2788 164.517 18.763 164.872 19.3939L167.066 18.1572C166.485 17.1259 165.67 16.3105 164.638 15.7292L163.402 17.9232ZM164.881 19.4088C165.24 20.0261 165.435 20.7548 165.435 21.6316H167.954C167.954 20.3626 167.666 19.1873 167.058 18.1423L164.881 19.4088ZM165.435 21.6316C165.435 21.7642 165.425 21.9196 165.401 22.0998L167.897 22.4326C167.934 22.1595 167.954 21.8918 167.954 21.6316H165.435ZM165.393 22.1765C165.383 22.3141 165.356 22.5041 165.304 22.7548L167.768 23.2736C167.836 22.9501 167.885 22.6415 167.905 22.3559L165.393 22.1765ZM166.533 21.755L157.036 21.7776L157.042 24.2961L166.539 24.2735L166.533 21.755ZM158.298 23.0369V20.6569H155.779V23.0369H158.298ZM157.042 21.9161L165.066 21.8935L165.059 19.375L157.035 19.3976L157.042 21.9161ZM164.364 19.5865L162.868 20.5838L164.265 22.6793L165.761 21.682L164.364 19.5865ZM164.825 21.6016C164.808 20.8656 164.693 20.1656 164.423 19.5561L162.121 20.579C162.213 20.7855 162.295 21.1282 162.308 21.6615L164.825 21.6016ZM164.429 19.5715C164.152 18.9254 163.709 18.3887 163.09 18.0278L161.821 20.2033C161.928 20.2656 162.029 20.3634 162.114 20.5636L164.429 19.5715ZM163.144 18.0608C162.548 17.672 161.864 17.5163 161.164 17.5163V20.0348C161.492 20.0348 161.669 20.1057 161.768 20.1703L163.144 18.0608ZM161.164 17.5163C160.414 17.5163 159.699 17.6962 159.065 18.0953L160.407 20.2265C160.589 20.1118 160.826 20.0348 161.164 20.0348V17.5163ZM159.076 18.0884C158.464 18.4652 158.001 18.9986 157.68 19.6404L159.933 20.7667C160.065 20.5019 160.222 20.3401 160.396 20.2333L159.076 18.0884ZM157.665 19.671C157.356 20.3331 157.23 21.0772 157.23 21.8582H159.748C159.748 21.3396 159.834 20.9807 159.948 20.7361L157.665 19.671ZM157.23 21.8582C157.23 22.6519 157.368 23.4075 157.696 24.084L159.963 22.9871C159.837 22.7267 159.748 22.3641 159.748 21.8582H157.23ZM157.718 24.1281C158.062 24.773 158.549 25.2985 159.173 25.6773L160.48 23.5245C160.258 23.3895 160.08 23.2048 159.94 22.943L157.718 24.1281ZM159.218 25.7035C159.873 26.0649 160.604 26.2228 161.368 26.2228V23.7043C160.953 23.7043 160.656 23.6204 160.435 23.4983L159.218 25.7035ZM161.368 26.2228C162.053 26.2228 162.711 26.1082 163.323 25.8551L162.36 23.528C162.095 23.6375 161.771 23.7043 161.368 23.7043V26.2228ZM163.356 25.8406C163.967 25.5669 164.497 25.1686 164.943 24.6621L163.052 22.9983C162.833 23.2474 162.592 23.4233 162.326 23.5425L163.356 25.8406ZM163.107 24.7206L165.011 26.6246L166.792 24.8438L164.888 22.9398L163.107 24.7206ZM164.945 24.9147C164.53 25.3988 164.036 25.7564 163.45 25.9978L164.409 28.3266C165.364 27.9333 166.184 27.3389 166.857 26.5537L164.945 24.9147ZM163.45 25.9978C162.847 26.2462 162.165 26.379 161.391 26.379V28.8975C162.459 28.8975 163.471 28.7129 164.409 28.3266L163.45 25.9978ZM168.369 27.3889H167.109V28.6481H168.369V27.3889ZM168.369 16.3729V15.1136H167.109V16.3729H168.369ZM171.837 16.3729H173.096V15.1136H171.837V16.3729ZM171.837 27.3889V28.6481H173.096V27.3889H171.837ZM171.837 21.3369L171.061 22.3292L173.096 23.9187V21.3369H171.837ZM170.386 20.2036L169.157 19.9289L168.983 20.7058L169.611 21.1959L170.386 20.2036ZM171.837 17.2116L172.746 18.0824L171.837 17.2116ZM176.053 16.3956L175.562 17.5553L175.588 17.5665L175.615 17.5764L176.053 16.3956ZM177.118 17.1209L178.105 17.9023L178.768 17.0644L178.05 16.2738L177.118 17.1209ZM175.055 19.7276L174.123 20.5746L175.122 21.6728L176.043 20.509L175.055 19.7276ZM174.489 19.3422L174.021 20.5114L174.021 20.5114L174.489 19.3422ZM172.335 19.7502L171.426 18.8789L171.425 18.8798L172.335 19.7502ZM169.628 27.3889V16.3729H167.109V27.3889H169.628ZM168.369 17.6321H171.837V15.1136H168.369V17.6321ZM170.577 16.3729V27.3889H173.096V16.3729H170.577ZM171.837 26.1296H168.369V28.6481H171.837V26.1296ZM172.612 20.3446L171.161 19.2112L169.611 21.1959L171.061 22.3292L172.612 20.3446ZM171.615 20.4783C171.868 19.3444 172.27 18.5797 172.746 18.0824L170.927 16.3407C170.043 17.2639 169.478 18.4938 169.157 19.9289L171.615 20.4783ZM172.746 18.0824C173.136 17.6752 173.72 17.4055 174.67 17.4055V14.887C173.202 14.887 171.897 15.3274 170.927 16.3407L172.746 18.0824ZM174.67 17.4055C175.069 17.4055 175.357 17.4685 175.562 17.5553L176.543 15.2358C175.963 14.9902 175.328 14.887 174.67 14.887V17.4055ZM175.615 17.5764C175.828 17.6551 176.015 17.7797 176.186 17.968L178.05 16.2738C177.616 15.7972 177.093 15.4382 176.49 15.2147L175.615 17.5764ZM176.13 16.3395L174.068 18.9461L176.043 20.509L178.105 17.9023L176.13 16.3395ZM175.987 18.8805C175.697 18.5612 175.344 18.3283 174.956 18.173L174.021 20.5114C174.086 20.5375 174.111 20.5615 174.123 20.5746L175.987 18.8805ZM174.956 18.173C174.557 18.0134 174.137 17.947 173.718 17.947V20.4655C173.872 20.4655 173.967 20.4897 174.021 20.5114L174.956 18.173ZM173.718 17.947C172.854 17.947 172.046 18.2321 171.426 18.8789L173.244 20.6215C173.32 20.543 173.433 20.4655 173.718 20.4655V17.947ZM171.425 18.8798C170.782 19.5527 170.577 20.4551 170.577 21.3369H173.096C173.096 20.7983 173.224 20.6429 173.245 20.6206L171.425 18.8798ZM179.884 27.4116L179.557 28.6278L179.565 28.6297L179.884 27.4116ZM178.138 26.7089L177.49 27.7887L177.508 27.7995L177.527 27.8097L178.138 26.7089ZM176.778 25.6209L175.883 24.7356L175.036 25.5924L175.854 26.4764L176.778 25.6209ZM178.75 23.6262L179.676 22.7721L178.781 21.8035L177.855 22.7409L178.75 23.6262ZM180.042 24.5556L179.521 25.7019L179.536 25.7086L179.55 25.7148L180.042 24.5556ZM182.604 24.6916L182.011 23.5804L181.995 23.5891L181.979 23.5982L182.604 24.6916ZM182.536 23.5809L181.897 24.6663L181.934 24.688L181.972 24.7072L182.536 23.5809ZM181.538 23.1956L181.18 24.4029L181.201 24.4091L181.222 24.4145L181.538 23.1956ZM178.954 22.2436L179.596 21.1602L179.596 21.1602L178.954 22.2436ZM177.957 21.2462L176.871 21.8831L176.875 21.8914L176.88 21.8997L177.957 21.2462ZM178.116 17.7556L179.144 18.4817L179.149 18.4748L179.154 18.4677L178.116 17.7556ZM179.657 16.5089L179.136 15.3625L179.136 15.3625L179.657 16.5089ZM184.576 16.5542L184.085 17.714L184.098 17.7196L184.112 17.7249L184.576 16.5542ZM186.525 17.9822L187.42 18.8675L188.201 18.0776L187.515 17.2042L186.525 17.9822ZM184.553 19.9769L183.594 20.7935L184.484 21.8378L185.448 20.8622L184.553 19.9769ZM183.374 19.1156L182.914 20.2876L182.921 20.2903L182.928 20.293L183.374 19.1156ZM181.244 19.0476L181.841 20.1563L181.873 20.1391L181.904 20.12L181.244 19.0476ZM182.332 20.4302L182.016 21.6492L182.016 21.6492L182.332 20.4302ZM183.624 20.8156L184.022 19.6209L184.022 19.6209L183.624 20.8156ZM184.916 21.4276L185.587 20.3619L185.587 20.3619L184.916 21.4276ZM185.913 22.4702L184.827 23.1071L184.831 23.1154L184.836 23.1237L185.913 22.4702ZM185.074 26.7089L184.301 25.7148L184.292 25.7219L185.074 26.7089ZM181.81 26.4016C181.269 26.4016 180.734 26.3326 180.203 26.1934L179.565 28.6297C180.302 28.823 181.052 28.9201 181.81 28.9201V26.4016ZM180.21 26.1953C179.687 26.0549 179.201 25.8588 178.75 25.6081L177.527 27.8097C178.163 28.1634 178.841 28.4357 179.557 28.6278L180.21 26.1953ZM178.786 25.6291C178.348 25.3664 177.991 25.0769 177.702 24.7653L175.854 26.4764C176.321 26.9808 176.87 27.4167 177.49 27.7887L178.786 25.6291ZM177.674 26.5062L179.646 24.5115L177.855 22.7409L175.883 24.7356L177.674 26.5062ZM177.825 24.4803C178.304 24.9997 178.873 25.4075 179.521 25.7019L180.563 23.4092C180.214 23.2502 179.921 23.0385 179.676 22.7721L177.825 24.4803ZM179.55 25.7148C180.218 25.998 180.931 26.1321 181.674 26.1321V23.6136C181.239 23.6136 180.864 23.5362 180.534 23.3963L179.55 25.7148ZM181.674 26.1321C182.171 26.1321 182.738 26.0649 183.228 25.7849L181.979 23.5982C182.022 23.5738 182.029 23.5803 181.971 23.5916C181.915 23.6026 181.819 23.6136 181.674 23.6136V26.1321ZM183.196 25.8027C183.728 25.5189 184.203 24.9775 184.203 24.1929H181.684C181.684 24.0594 181.725 23.9039 181.818 23.7668C181.903 23.6417 181.993 23.5899 182.011 23.5804L183.196 25.8027ZM184.203 24.1929C184.203 23.8365 184.11 23.4686 183.889 23.1374C183.674 22.8141 183.384 22.5973 183.099 22.4546L181.972 24.7072C181.959 24.7005 181.873 24.6537 181.794 24.5344C181.709 24.4072 181.684 24.2772 181.684 24.1929H184.203ZM183.174 22.4955C182.784 22.2662 182.333 22.1006 181.854 21.9766L181.222 24.4145C181.56 24.502 181.773 24.5933 181.897 24.6663L183.174 22.4955ZM181.896 21.9882C181.489 21.8677 181.06 21.7397 180.608 21.6041L179.884 24.0164C180.339 24.1527 180.771 24.2816 181.18 24.4029L181.896 21.9882ZM180.608 21.6041C180.253 21.4975 179.916 21.3499 179.596 21.1602L178.312 23.3269C178.808 23.6207 179.333 23.8509 179.884 24.0164L180.608 21.6041ZM179.596 21.1602C179.374 21.0285 179.188 20.847 179.033 20.5927L176.88 21.8997C177.24 22.4916 177.718 22.975 178.312 23.3269L179.596 21.1602ZM179.043 20.6094C178.929 20.4151 178.831 20.0999 178.831 19.5916H176.312C176.312 20.4129 176.471 21.2009 176.871 21.8831L179.043 20.6094ZM178.831 19.5916C178.831 19.1064 178.951 18.7562 179.144 18.4817L177.087 17.0294C176.555 17.7825 176.312 18.6563 176.312 19.5916H178.831ZM179.154 18.4677C179.37 18.1531 179.692 17.876 180.178 17.6553L179.136 15.3625C178.292 15.7462 177.587 16.3002 177.077 17.0434L179.154 18.4677ZM180.178 17.6553C180.647 17.442 181.241 17.3148 181.992 17.3148V14.7963C180.959 14.7963 179.996 14.9713 179.136 15.3625L180.178 17.6553ZM181.992 17.3148C182.776 17.3148 183.469 17.4534 184.085 17.714L185.066 15.3945C184.111 14.9902 183.08 14.7963 181.992 14.7963V17.3148ZM184.112 17.7249C184.72 17.9659 185.183 18.3125 185.535 18.7602L187.515 17.2042C186.869 16.3826 186.033 15.7772 185.039 15.3835L184.112 17.7249ZM185.629 17.0969L183.657 19.0916L185.448 20.8622L187.42 18.8675L185.629 17.0969ZM185.511 19.1603C185.046 18.6143 184.484 18.1898 183.821 17.9381L182.928 20.293C183.141 20.3737 183.364 20.5235 183.594 20.7935L185.511 19.1603ZM183.835 17.9435C183.282 17.7262 182.71 17.607 182.128 17.607V20.1255C182.361 20.1255 182.621 20.1724 182.914 20.2876L183.835 17.9435ZM182.128 17.607C181.646 17.607 181.073 17.6736 180.584 17.9751L181.904 20.12C181.845 20.156 181.82 20.1543 181.865 20.1451C181.908 20.1362 181.992 20.1255 182.128 20.1255V17.607ZM180.647 17.9388C180.392 18.0758 180.138 18.2825 179.952 18.5831C179.764 18.8871 179.69 19.2157 179.69 19.5236H182.208C182.208 19.6199 182.183 19.7633 182.093 19.9087C182.005 20.0506 181.899 20.1251 181.841 20.1563L180.647 17.9388ZM179.69 19.5236C179.69 20.3532 180.213 20.8985 180.745 21.1805L181.923 18.9546C181.918 18.9515 181.993 18.9897 182.073 19.1017C182.163 19.2283 182.208 19.3817 182.208 19.5236H179.69ZM180.745 21.1805C181.118 21.3778 181.551 21.5288 182.016 21.6492L182.648 19.2113C182.296 19.1201 182.064 19.0293 181.923 18.9546L180.745 21.1805ZM182.016 21.6492C182.393 21.7469 182.796 21.8669 183.225 22.0102L184.022 19.6209C183.545 19.4619 183.087 19.3251 182.648 19.2113L182.016 21.6492ZM183.225 22.0102C183.582 22.1291 183.921 22.2896 184.245 22.4932L185.587 20.3619C185.094 20.0517 184.572 19.8042 184.022 19.6209L183.225 22.0102ZM184.245 22.4932C184.473 22.6367 184.666 22.8334 184.827 23.1071L186.999 21.8334C186.646 21.2306 186.175 20.7322 185.587 20.3619L184.245 22.4932ZM184.836 23.1237C184.935 23.2857 185.039 23.5941 185.039 24.1476H187.557C187.557 23.3108 187.405 22.501 186.989 21.8167L184.836 23.1237ZM185.039 24.1476C185.039 24.849 184.797 25.3291 184.301 25.7149L185.847 27.7029C186.983 26.8193 187.557 25.5919 187.557 24.1476H185.039ZM184.292 25.7219C183.78 26.1278 182.999 26.4016 181.81 26.4016V28.9201C183.371 28.9201 184.767 28.5593 185.856 27.6958L184.292 25.7219Z" fill="white" mask="url(#path-3-outside-1_15_12)"/>
<defs>
<linearGradient id="paint0_linear_15_12" x1="18.8889" y1="0" x2="18.8889" y2="37.7778" gradientUnits="userSpaceOnUse">
<stop stop-color="#5956E9"/>
<stop offset="1" stop-color="#2522BA"/>
</linearGradient>
<linearGradient id="paint1_linear_15_12" x1="119" y1="4.38889" x2="119" y2="33.3889" gradientUnits="userSpaceOnUse">
<stop stop-color="#5956E9"/>
<stop offset="1" stop-color="#2522BA"/>
</linearGradient>
</defs>
</svg>
