<svg width="256" height="256" viewBox="0 0 256 256" fill="none" xmlns="http://www.w3.org/2000/svg">
<path d="M127.887 57.9157C130.894 57.9157 133.94 57.1514 136.725 55.5441C145.194 50.6518 148.108 39.7828 143.219 31.3162C140.85 27.2136 137.026 24.2772 132.448 23.052C127.871 21.8269 123.094 22.4563 118.988 24.8251C110.519 29.7145 107.608 40.5836 112.497 49.053C115.779 54.7348 121.753 57.9157 127.887 57.9157ZM121.798 29.6892C123.667 28.6102 125.738 28.0594 127.837 28.0594C128.891 28.0594 129.947 28.1971 130.993 28.4781C134.117 29.3155 136.731 31.3219 138.349 34.1234C141.687 39.9092 139.698 47.3332 133.915 50.6743C128.132 54.0154 120.702 52.0259 117.361 46.2401C114.02 40.4544 116.012 33.0303 121.798 29.6892Z" fill="url(#paint0_linear_23_44)"/>
<path d="M95.8423 53.5068C97.0225 53.5068 98.1099 54.1952 98.6832 55.3052C98.9108 55.7436 99.1496 56.1791 99.3997 56.6175C99.6498 57.0474 99.9055 57.4717 100.172 57.8876C100.844 58.9385 100.897 60.2255 100.307 61.2455C99.1356 63.2744 98.8237 65.6376 99.4306 67.8996C100.038 70.1617 101.488 72.0528 103.516 73.2246L111.41 77.7824C115.599 80.199 120.969 78.7603 123.392 74.5706C123.979 73.5505 125.035 72.9436 126.266 73.0054C127.326 73.0616 128.391 73.0588 129.458 73.0082C130.624 72.9295 131.734 73.5477 132.325 74.5706C133.496 76.5994 135.387 78.0493 137.649 78.6563C138.405 78.8586 139.17 78.9598 139.931 78.9598C141.449 78.9598 142.949 78.5608 144.301 77.7824L152.194 73.2246C154.223 72.0556 155.673 70.1617 156.28 67.8996C156.887 65.6376 156.575 63.2744 155.403 61.2427C154.813 60.2199 154.844 58.9694 155.482 57.9775C156.058 57.0839 156.589 56.1622 157.075 55.2181C157.615 54.1643 158.688 53.5068 159.868 53.5068C164.704 53.5068 168.638 49.5728 168.638 44.7368V35.624C168.638 30.7908 164.704 26.8568 159.868 26.8568C158.688 26.8568 157.598 26.1683 157.022 25.0527C156.797 24.6172 156.561 24.1816 156.311 23.7517C156.061 23.319 155.799 22.8919 155.535 22.476C154.864 21.425 154.81 20.138 155.4 19.118C156.572 17.0892 156.881 14.726 156.277 12.4639C155.67 10.2019 154.22 8.31076 152.191 7.13899L144.301 2.58679C142.275 1.41502 139.912 1.10311 137.649 1.71007C135.387 2.31422 133.496 3.76699 132.325 5.79581C131.737 6.81584 130.641 7.41718 129.444 7.35817C128.382 7.3104 127.317 7.30478 126.258 7.35817C125.069 7.41999 123.979 6.81303 123.389 5.793C122.217 3.76418 120.326 2.31422 118.064 1.70726C115.805 1.1003 113.438 1.41502 111.41 2.58398L103.516 7.1418C99.3295 9.5584 97.8908 14.9311 100.307 19.1208C100.895 20.1409 100.867 21.3941 100.226 22.3861C99.647 23.2853 99.1159 24.2041 98.6326 25.1483C98.0903 26.202 97.0197 26.8568 95.8367 26.8568C91.0035 26.8568 87.0695 30.7908 87.0695 35.6268V44.7396C87.0723 49.5728 91.0063 53.5068 95.8423 53.5068ZM92.6923 35.6268C92.6923 33.8902 94.1057 32.4768 95.8451 32.4768C99.1412 32.4768 102.125 30.6531 103.634 27.7166C104.036 26.9354 104.475 26.1711 104.955 25.4293C106.739 22.6586 106.824 19.1658 105.177 16.3108C104.756 15.583 104.646 14.7344 104.862 13.9223C105.082 13.1102 105.601 12.4302 106.329 12.0115L114.225 7.45371C114.953 7.03221 115.802 6.91981 116.614 7.13899C117.426 7.35817 118.106 7.87802 118.527 8.60581C120.171 11.458 123.226 13.1131 126.536 12.9726C127.413 12.9248 128.292 12.9276 129.177 12.9726C132.496 13.1355 135.55 11.458 137.197 8.60581C137.616 7.87521 138.299 7.35536 139.111 7.13899C139.928 6.91981 140.771 7.03221 141.499 7.45371L149.392 12.0115C150.123 12.4302 150.643 13.1102 150.859 13.9223C151.076 14.7344 150.966 15.583 150.545 16.3108C148.898 19.1602 149.002 22.6867 150.82 25.5164C151.039 25.8592 151.25 26.2077 151.458 26.5645C151.663 26.9242 151.862 27.2867 152.048 27.6464C153.591 30.6306 156.592 32.4824 159.882 32.4824C161.619 32.4824 163.032 33.893 163.032 35.6296V44.7424C163.032 46.479 161.619 47.8924 159.879 47.8924C156.583 47.8924 153.602 49.7161 152.093 52.6497C151.688 53.4309 151.247 54.1981 150.769 54.9399C148.985 57.7077 148.901 61.2034 150.547 64.0612C150.969 64.789 151.078 65.6376 150.862 66.4497C150.646 67.2617 150.123 67.9418 149.395 68.3605L141.502 72.9183C140.769 73.3398 139.923 73.4466 139.113 73.233C138.301 73.0138 137.621 72.494 137.2 71.7634C135.623 69.0349 132.752 67.3882 129.627 67.3882C129.484 67.3882 129.337 67.391 129.194 67.3966C128.309 67.4388 127.429 67.4388 126.55 67.3966C123.293 67.2449 120.18 68.9112 118.53 71.7662C117.662 73.2695 115.731 73.7838 114.228 72.9183L106.335 68.3605C105.607 67.9418 105.084 67.2617 104.868 66.4497C104.649 65.6376 104.761 64.7889 105.183 64.0583C106.827 61.209 106.723 57.6825 104.913 54.8612C104.691 54.5156 104.477 54.1615 104.269 53.8075C104.064 53.4506 103.865 53.0909 103.679 52.7284C102.139 49.7442 99.1356 47.8924 95.8451 47.8924C94.1085 47.8924 92.6979 46.479 92.6979 44.7424V35.6268H92.6923Z" fill="url(#paint1_linear_23_44)"/>
<path d="M88.0445 140.527C89.5956 140.527 90.8545 139.271 90.8545 137.717V119.606H108.588V137.717C108.588 139.271 109.847 140.527 111.398 140.527C112.95 140.527 114.208 139.271 114.208 137.717V104.896C114.208 98.3713 108.9 93.066 102.378 93.066H97.0646C90.5398 93.066 85.2345 98.3741 85.2345 104.896V137.717C85.2345 139.268 86.4934 140.527 88.0445 140.527ZM97.0674 98.686H102.381C105.807 98.686 108.591 101.473 108.591 104.896V113.984H90.8573V104.896C90.8545 101.471 93.642 98.686 97.0674 98.686Z" fill="url(#paint2_linear_23_44)"/>
<path d="M143.435 93.066H129.034C127.483 93.066 126.224 94.3249 126.224 95.876V116.796V137.717C126.224 139.271 127.483 140.527 129.034 140.527C130.585 140.527 131.841 139.271 131.841 137.717V119.606H143.435C149.395 119.606 154.245 114.756 154.245 108.796V103.876C154.245 97.9132 149.395 93.066 143.435 93.066ZM148.625 108.796C148.625 111.657 146.299 113.986 143.435 113.986H131.841V98.686H143.435C146.299 98.686 148.625 101.015 148.625 103.876V108.796Z" fill="url(#paint3_linear_23_44)"/>
<path d="M164.859 95.876V137.717C164.859 139.271 166.115 140.527 167.669 140.527C169.223 140.527 170.479 139.271 170.479 137.717V95.876C170.479 94.3249 169.223 93.066 167.669 93.066C166.115 93.066 164.859 94.3249 164.859 95.876Z" fill="url(#paint4_linear_23_44)"/>
<path d="M230.205 37.8551H183.304C181.75 37.8551 180.494 39.114 180.494 40.6651C180.494 42.2162 181.75 43.4751 183.304 43.4751H230.205C236.857 43.4751 242.269 48.8872 242.269 55.5384V159.562H13.4446V55.5384C13.4446 48.8872 18.8567 43.4751 25.508 43.4751H72.6738C74.2249 43.4751 75.4838 42.2162 75.4838 40.6651C75.4838 39.114 74.2249 37.8551 72.6738 37.8551H25.508C15.7573 37.8551 7.82465 45.7877 7.82465 55.5384V162.366C7.82465 162.369 7.82465 162.372 7.82465 162.372V185.037C7.82465 194.788 15.7573 202.721 25.508 202.721H91.8661L86.3951 229.098H85.9455C73.5955 229.098 63.5469 239.144 63.5469 251.497C63.5469 253.051 64.8058 254.307 66.3569 254.307H189.348C190.902 254.307 192.158 253.051 192.158 251.497C192.158 239.147 182.112 229.098 169.762 229.098H169.313L163.841 202.721H230.2C239.95 202.721 247.883 194.788 247.883 185.037V162.372V55.5384C247.889 45.7877 239.956 37.8551 230.205 37.8551ZM186.307 248.684H69.4058C70.7462 240.765 77.6531 234.715 85.9483 234.715H88.6852H167.028H169.768C178.06 234.718 184.967 240.765 186.307 248.684ZM163.577 229.098H92.1359L97.607 202.721H158.109L163.577 229.098ZM242.269 185.037C242.269 191.689 236.857 197.101 230.205 197.101H160.394H95.3196H25.508C18.8567 197.101 13.4446 191.689 13.4446 185.037V165.182H242.269V185.037Z" fill="url(#paint5_linear_23_44)"/>
<path d="M123.939 183.09H131.771C133.325 183.09 134.581 181.834 134.581 180.28C134.581 178.726 133.325 177.47 131.771 177.47H123.939C122.388 177.47 121.129 178.726 121.129 180.28C121.129 181.834 122.388 183.09 123.939 183.09Z" fill="url(#paint6_linear_23_44)"/>
<defs>
<linearGradient id="paint0_linear_23_44" x1="127.858" y1="22.4408" x2="127.858" y2="57.9157" gradientUnits="userSpaceOnUse">
<stop stop-color="#5956E9"/>
<stop offset="1" stop-color="#2522BA"/>
</linearGradient>
<linearGradient id="paint1_linear_23_44" x1="127.854" y1="1.40503" x2="127.854" y2="78.9598" gradientUnits="userSpaceOnUse">
<stop stop-color="#5956E9"/>
<stop offset="1" stop-color="#2522BA"/>
</linearGradient>
<linearGradient id="paint2_linear_23_44" x1="99.7215" y1="93.066" x2="99.7215" y2="140.527" gradientUnits="userSpaceOnUse">
<stop stop-color="#5956E9"/>
<stop offset="1" stop-color="#2522BA"/>
</linearGradient>
<linearGradient id="paint3_linear_23_44" x1="140.235" y1="93.066" x2="140.235" y2="140.527" gradientUnits="userSpaceOnUse">
<stop stop-color="#5956E9"/>
<stop offset="1" stop-color="#2522BA"/>
</linearGradient>
<linearGradient id="paint4_linear_23_44" x1="167.669" y1="93.066" x2="167.669" y2="140.527" gradientUnits="userSpaceOnUse">
<stop stop-color="#5956E9"/>
<stop offset="1" stop-color="#2522BA"/>
</linearGradient>
<linearGradient id="paint5_linear_23_44" x1="127.854" y1="37.8551" x2="127.854" y2="254.307" gradientUnits="userSpaceOnUse">
<stop stop-color="#5956E9"/>
<stop offset="1" stop-color="#2522BA"/>
</linearGradient>
<linearGradient id="paint6_linear_23_44" x1="127.855" y1="177.47" x2="127.855" y2="183.09" gradientUnits="userSpaceOnUse">
<stop stop-color="#5956E9"/>
<stop offset="1" stop-color="#2522BA"/>
</linearGradient>
</defs>
</svg>
