<svg width="256" height="256" viewBox="0 0 256 256" fill="none" xmlns="http://www.w3.org/2000/svg">
<path d="M103.525 206.41C78.01 206.41 75.1157 184.276 72.5614 164.746C69.7908 143.542 66.9274 130.667 50.5816 130.667C49.0305 130.667 47.7716 129.408 47.7716 127.857C47.7716 126.305 49.0305 125.047 50.5816 125.047C66.9274 125.047 69.7908 112.171 72.5614 90.9669C75.1157 71.4374 78.0072 49.3031 103.525 49.3031C105.076 49.3031 106.335 50.5619 106.335 52.1131C106.335 53.6642 105.076 54.9231 103.525 54.9231C82.9416 54.9231 80.716 71.9629 78.1365 91.6947C76.2791 105.905 74.2278 121.59 62.836 127.857C74.2278 134.123 76.2791 149.808 78.1365 164.018C80.716 183.748 82.9416 200.79 103.525 200.79C105.076 200.79 106.335 202.046 106.335 203.6C106.335 205.154 105.076 206.41 103.525 206.41Z" fill="url(#paint0_linear_23_53)"/>
<path d="M152.188 206.41C150.634 206.41 149.378 205.154 149.378 203.6C149.378 202.046 150.634 200.79 152.188 200.79C172.769 200.79 174.997 183.75 177.577 164.018C179.434 149.811 181.485 134.123 192.88 127.857C181.485 121.59 179.437 105.905 177.58 91.6947C175 71.9657 172.772 54.9231 152.191 54.9231C150.637 54.9231 149.381 53.6642 149.381 52.1131C149.381 50.5619 150.637 49.3031 152.191 49.3031C177.706 49.3031 180.598 71.4374 183.155 90.9669C185.922 112.171 188.786 125.047 205.132 125.047C206.686 125.047 207.942 126.305 207.942 127.857C207.942 129.408 206.686 130.667 205.132 130.667C188.786 130.667 185.922 143.542 183.152 164.746C180.598 184.276 177.703 206.41 152.188 206.41Z" fill="url(#paint1_linear_23_53)"/>
<path d="M218.937 254.307H36.7761C17.2719 254.307 1.40662 238.441 1.40662 218.937V36.7761C1.40662 17.2719 17.2719 1.4066 36.7761 1.4066H218.937C238.441 1.4066 254.307 17.2719 254.307 36.7761V218.937C254.307 238.441 238.441 254.307 218.937 254.307ZM36.7761 7.0266C20.3713 7.0266 7.02662 20.3713 7.02662 36.7761V218.937C7.02662 235.342 20.3713 248.687 36.7761 248.687H218.937C235.342 248.687 248.687 235.342 248.687 218.937V36.7761C248.687 20.3713 235.342 7.0266 218.937 7.0266H36.7761Z" fill="url(#paint2_linear_23_53)"/>
<defs>
<linearGradient id="paint0_linear_23_53" x1="77.0532" y1="49.3031" x2="77.0532" y2="206.41" gradientUnits="userSpaceOnUse">
<stop stop-color="#5956E9"/>
<stop offset="1" stop-color="#2522BA"/>
</linearGradient>
<linearGradient id="paint1_linear_23_53" x1="178.66" y1="49.3031" x2="178.66" y2="206.41" gradientUnits="userSpaceOnUse">
<stop stop-color="#5956E9"/>
<stop offset="1" stop-color="#2522BA"/>
</linearGradient>
<linearGradient id="paint2_linear_23_53" x1="127.857" y1="1.4066" x2="127.857" y2="254.307" gradientUnits="userSpaceOnUse">
<stop stop-color="#5956E9"/>
<stop offset="1" stop-color="#2522BA"/>
</linearGradient>
</defs>
</svg>
