<svg width="256" height="256" viewBox="0 0 256 256" fill="none" xmlns="http://www.w3.org/2000/svg">
<path d="M127.857 147.156C126.306 147.156 125.047 145.9 125.047 144.346V4.21662C125.047 2.6655 126.306 1.40662 127.857 1.40662C129.408 1.40662 130.667 2.6655 130.667 4.21662V144.346C130.667 145.9 129.408 147.156 127.857 147.156Z" fill="url(#paint0_linear_23_20)"/>
<path d="M127.857 76.4589C93.6533 76.4589 61.3186 65.6179 39.1393 46.7179C37.9591 45.7119 37.8158 43.936 38.8218 42.7558C39.8277 41.57 41.6008 41.4323 42.7839 42.4382C63.9628 60.4869 94.9684 70.8389 127.857 70.8389C160.745 70.8389 191.75 60.4869 212.927 42.4411C214.11 41.4379 215.883 41.5728 216.886 42.7586C217.892 43.9388 217.754 45.7119 216.571 46.7207C194.397 65.6207 162.06 76.4589 127.857 76.4589Z" fill="url(#paint1_linear_23_20)"/>
<path d="M241.589 120.759H14.1247C12.5736 120.759 11.3147 119.5 11.3147 117.949C11.3147 116.397 12.5736 115.139 14.1247 115.139H241.586C243.14 115.139 244.396 116.397 244.396 117.949C244.396 119.5 243.14 120.759 241.589 120.759Z" fill="url(#paint2_linear_23_20)"/>
<path d="M54.5887 224.914C53.0376 224.914 51.7787 223.658 51.7787 222.104V203.212C51.7787 200.574 49.629 198.424 46.9904 198.424H42.146V222.104C42.146 223.658 40.8871 224.914 39.336 224.914C37.7849 224.914 36.526 223.658 36.526 222.104V195.614C36.526 194.06 37.7849 192.804 39.336 192.804H46.9904C52.7285 192.804 57.3987 197.474 57.3987 203.212V222.104C57.3987 223.658 56.1398 224.914 54.5887 224.914Z" fill="url(#paint3_linear_23_20)"/>
<path d="M39.336 198.424C37.7849 198.424 36.526 197.168 36.526 195.614V177.81C36.526 176.256 37.7849 175 39.336 175C40.8871 175 42.146 176.256 42.146 177.81V195.614C42.146 197.168 40.8871 198.424 39.336 198.424Z" fill="url(#paint4_linear_23_20)"/>
<path d="M76.6219 224.914H75.1776C71.0834 224.914 67.7507 221.584 67.7507 217.49V185.108C67.7507 183.554 69.0096 182.298 70.5607 182.298C72.1119 182.298 73.3707 183.554 73.3707 185.108V217.49C73.3707 218.485 74.18 219.294 75.1776 219.294H76.6219C78.173 219.294 79.4319 220.55 79.4319 222.104C79.4319 223.658 78.173 224.914 76.6219 224.914Z" fill="url(#paint5_linear_23_20)"/>
<path d="M76.6219 195.058H67.4528C65.9017 195.058 64.6428 193.802 64.6428 192.248C64.6428 190.694 65.9017 189.438 67.4528 189.438H76.6219C78.173 189.438 79.4319 190.694 79.4319 192.248C79.4319 193.802 78.173 195.058 76.6219 195.058Z" fill="url(#paint6_linear_23_20)"/>
<path d="M99.692 224.914H98.2448C94.1507 224.914 90.8208 221.584 90.8208 217.49V185.108C90.8208 183.554 92.0797 182.298 93.6308 182.298C95.1819 182.298 96.4408 183.554 96.4408 185.108V217.49C96.4408 218.485 97.2501 219.294 98.2448 219.294H99.692C101.243 219.294 102.502 220.55 102.502 222.104C102.502 223.658 101.243 224.914 99.692 224.914Z" fill="url(#paint7_linear_23_20)"/>
<path d="M99.6919 195.058H90.5201C88.969 195.058 87.7101 193.802 87.7101 192.248C87.7101 190.694 88.969 189.438 90.5201 189.438H99.6919C101.243 189.438 102.502 190.694 102.502 192.248C102.502 193.802 101.243 195.058 99.6919 195.058Z" fill="url(#paint8_linear_23_20)"/>
<path d="M127.278 224.914H115.802C114.251 224.914 112.992 223.658 112.992 222.104V195.614C112.992 194.06 114.251 192.804 115.802 192.804H127.278C130.908 192.804 133.864 195.76 133.864 199.391V218.327C133.864 221.958 130.908 224.914 127.278 224.914ZM118.609 219.294H127.275C127.806 219.294 128.242 218.861 128.242 218.327V199.391C128.242 198.86 127.809 198.424 127.275 198.424H118.609V219.294Z" fill="url(#paint9_linear_23_20)"/>
<path d="M115.799 239.079C114.248 239.079 112.989 237.823 112.989 236.269V222.104C112.989 220.55 114.248 219.294 115.799 219.294C117.35 219.294 118.609 220.55 118.609 222.104V236.269C118.609 237.823 117.353 239.079 115.799 239.079Z" fill="url(#paint10_linear_23_20)"/>
<path d="M154.63 224.914H146.001C144.447 224.914 143.191 223.658 143.191 222.104C143.191 220.55 144.447 219.294 146.001 219.294H154.63C156.732 219.294 158.443 217.586 158.443 215.484C158.443 213.382 156.732 211.673 154.63 211.673H151.182C149.629 211.673 148.372 210.417 148.372 208.863C148.372 207.309 149.629 206.053 151.182 206.053H154.63C159.834 206.053 164.063 210.285 164.063 215.484C164.063 220.682 159.834 224.914 154.63 224.914Z" fill="url(#paint11_linear_23_20)"/>
<path d="M155.035 211.67H152.624C147.423 211.67 143.194 207.439 143.194 202.237C143.194 197.036 147.425 192.807 152.624 192.807H157.109C158.663 192.807 159.919 194.063 159.919 195.617C159.919 197.171 158.663 198.427 157.109 198.427H152.624C150.522 198.427 148.814 200.135 148.814 202.237C148.814 204.339 150.522 206.05 152.624 206.05H155.035C156.589 206.05 157.845 207.307 157.845 208.86C157.845 210.414 156.589 211.67 155.035 211.67Z" fill="url(#paint12_linear_23_20)"/>
<path d="M192.863 224.914C192.495 224.914 192.124 224.844 191.764 224.692C190.337 224.085 189.671 222.436 190.275 221.005L201.276 195.044C201.886 193.613 203.536 192.956 204.963 193.554C206.391 194.161 207.056 195.811 206.452 197.241L195.451 223.203C194.996 224.273 193.953 224.914 192.863 224.914Z" fill="url(#paint13_linear_23_20)"/>
<path d="M208.717 224.914C208.349 224.914 207.978 224.844 207.621 224.692C206.191 224.085 205.525 222.436 206.129 221.008L217.127 195.047C217.734 193.613 219.392 192.956 220.811 193.554C222.242 194.161 222.908 195.811 222.303 197.238L211.305 223.2C210.853 224.273 209.81 224.914 208.717 224.914Z" fill="url(#paint14_linear_23_20)"/>
<path d="M177.071 209.51C178.66 209.51 179.948 208.221 179.948 206.632C179.948 205.043 178.66 203.755 177.071 203.755C175.482 203.755 174.193 205.043 174.193 206.632C174.193 208.221 175.482 209.51 177.071 209.51Z" fill="url(#paint15_linear_23_20)"/>
<path d="M177.079 210.906C174.719 210.906 172.8 208.984 172.8 206.624C172.8 204.263 174.722 202.344 177.079 202.344C179.443 202.344 181.362 204.266 181.362 206.624C181.362 208.984 179.44 210.906 177.079 210.906ZM177.079 205.151C176.267 205.151 175.61 205.809 175.61 206.621C175.61 207.433 176.267 208.093 177.079 208.093C177.892 208.093 178.552 207.433 178.552 206.621C178.552 205.809 177.892 205.151 177.079 205.151Z" fill="url(#paint16_linear_23_20)"/>
<path d="M177.071 223.897C178.66 223.897 179.948 222.609 179.948 221.019C179.948 219.43 178.66 218.142 177.071 218.142C175.482 218.142 174.193 219.43 174.193 221.019C174.193 222.609 175.482 223.897 177.071 223.897Z" fill="url(#paint17_linear_23_20)"/>
<path d="M177.079 225.288C174.719 225.288 172.8 223.366 172.8 221.005C172.8 218.645 174.722 216.726 177.079 216.726C179.443 216.726 181.362 218.648 181.362 221.005C181.362 223.366 179.44 225.288 177.079 225.288ZM177.079 219.533C176.267 219.533 175.61 220.19 175.61 221.003C175.61 221.815 176.267 222.475 177.079 222.475C177.892 222.475 178.552 221.815 178.552 221.003C178.552 220.19 177.892 219.533 177.079 219.533Z" fill="url(#paint18_linear_23_20)"/>
<path d="M240.029 254.307H15.6842C10.3593 254.307 6.02625 249.974 6.02625 244.646V166.786C6.02625 161.459 10.3593 157.126 15.6842 157.126H240.029C245.357 157.126 249.69 161.459 249.69 166.786V244.646C249.687 249.974 245.354 254.307 240.029 254.307ZM15.6842 162.748C13.4587 162.748 11.6462 164.561 11.6462 166.789V244.649C11.6462 246.874 13.4587 248.687 15.6842 248.687H240.029C242.257 248.687 244.07 246.874 244.07 244.646V166.786C244.07 164.558 242.257 162.746 240.029 162.746L15.6842 162.748Z" fill="url(#paint19_linear_23_20)"/>
<path d="M17.2354 147.156C15.9624 147.156 14.8103 146.285 14.504 144.995C12.3881 136.093 11.3147 126.994 11.3147 117.946C11.3147 53.6867 63.5947 1.40662 127.857 1.40662C192.116 1.40662 244.399 53.6867 244.399 117.949C244.399 126.994 243.325 136.096 241.209 144.998C240.85 146.507 239.341 147.448 237.826 147.08C236.317 146.723 235.384 145.206 235.744 143.697C237.759 135.219 238.779 126.556 238.779 117.949C238.779 56.7861 189.019 7.02662 127.857 7.02662C66.6942 7.02662 16.9347 56.7861 16.9347 117.949C16.9347 126.558 17.9575 135.222 19.9723 143.697C20.332 145.206 19.3991 146.72 17.8901 147.08C17.6709 147.13 17.4517 147.156 17.2354 147.156Z" fill="url(#paint20_linear_23_20)"/>
<path d="M185.206 147.156C185.091 147.156 184.975 147.15 184.86 147.133C183.318 146.945 182.224 145.543 182.416 144.003C183.472 135.435 184.006 126.671 184.006 117.949C184.006 56.7861 158.82 7.02662 127.857 7.02662C96.8932 7.02662 71.7044 56.7861 71.7044 117.949C71.7044 126.66 72.2382 135.427 73.2976 144.003C73.4859 145.543 72.3928 146.945 70.8501 147.133C69.3271 147.355 67.908 146.231 67.717 144.689C66.6323 135.882 66.0815 126.887 66.0815 117.946C66.0844 53.6867 93.7938 1.40662 127.857 1.40662C161.917 1.40662 189.626 53.6867 189.626 117.949C189.626 126.901 189.078 135.899 187.991 144.691C187.816 146.113 186.605 147.156 185.206 147.156Z" fill="url(#paint21_linear_23_20)"/>
<defs>
<linearGradient id="paint0_linear_23_20" x1="127.857" y1="1.40662" x2="127.857" y2="147.156" gradientUnits="userSpaceOnUse">
<stop stop-color="#5956E9"/>
<stop offset="1" stop-color="#2522BA"/>
</linearGradient>
<linearGradient id="paint1_linear_23_20" x1="127.855" y1="41.7662" x2="127.855" y2="76.4589" gradientUnits="userSpaceOnUse">
<stop stop-color="#5956E9"/>
<stop offset="1" stop-color="#2522BA"/>
</linearGradient>
<linearGradient id="paint2_linear_23_20" x1="127.855" y1="115.139" x2="127.855" y2="120.759" gradientUnits="userSpaceOnUse">
<stop stop-color="#5956E9"/>
<stop offset="1" stop-color="#2522BA"/>
</linearGradient>
<linearGradient id="paint3_linear_23_20" x1="46.9623" y1="192.804" x2="46.9623" y2="224.914" gradientUnits="userSpaceOnUse">
<stop stop-color="#5956E9"/>
<stop offset="1" stop-color="#2522BA"/>
</linearGradient>
<linearGradient id="paint4_linear_23_20" x1="39.336" y1="175" x2="39.336" y2="198.424" gradientUnits="userSpaceOnUse">
<stop stop-color="#5956E9"/>
<stop offset="1" stop-color="#2522BA"/>
</linearGradient>
<linearGradient id="paint5_linear_23_20" x1="73.5913" y1="182.298" x2="73.5913" y2="224.914" gradientUnits="userSpaceOnUse">
<stop stop-color="#5956E9"/>
<stop offset="1" stop-color="#2522BA"/>
</linearGradient>
<linearGradient id="paint6_linear_23_20" x1="72.0373" y1="189.438" x2="72.0373" y2="195.058" gradientUnits="userSpaceOnUse">
<stop stop-color="#5956E9"/>
<stop offset="1" stop-color="#2522BA"/>
</linearGradient>
<linearGradient id="paint7_linear_23_20" x1="96.6614" y1="182.298" x2="96.6614" y2="224.914" gradientUnits="userSpaceOnUse">
<stop stop-color="#5956E9"/>
<stop offset="1" stop-color="#2522BA"/>
</linearGradient>
<linearGradient id="paint8_linear_23_20" x1="95.106" y1="189.438" x2="95.106" y2="195.058" gradientUnits="userSpaceOnUse">
<stop stop-color="#5956E9"/>
<stop offset="1" stop-color="#2522BA"/>
</linearGradient>
<linearGradient id="paint9_linear_23_20" x1="123.428" y1="192.804" x2="123.428" y2="224.914" gradientUnits="userSpaceOnUse">
<stop stop-color="#5956E9"/>
<stop offset="1" stop-color="#2522BA"/>
</linearGradient>
<linearGradient id="paint10_linear_23_20" x1="115.799" y1="219.294" x2="115.799" y2="239.079" gradientUnits="userSpaceOnUse">
<stop stop-color="#5956E9"/>
<stop offset="1" stop-color="#2522BA"/>
</linearGradient>
<linearGradient id="paint11_linear_23_20" x1="153.627" y1="206.053" x2="153.627" y2="224.914" gradientUnits="userSpaceOnUse">
<stop stop-color="#5956E9"/>
<stop offset="1" stop-color="#2522BA"/>
</linearGradient>
<linearGradient id="paint12_linear_23_20" x1="151.556" y1="192.807" x2="151.556" y2="211.67" gradientUnits="userSpaceOnUse">
<stop stop-color="#5956E9"/>
<stop offset="1" stop-color="#2522BA"/>
</linearGradient>
<linearGradient id="paint13_linear_23_20" x1="198.364" y1="193.333" x2="198.364" y2="224.914" gradientUnits="userSpaceOnUse">
<stop stop-color="#5956E9"/>
<stop offset="1" stop-color="#2522BA"/>
</linearGradient>
<linearGradient id="paint14_linear_23_20" x1="214.216" y1="193.334" x2="214.216" y2="224.914" gradientUnits="userSpaceOnUse">
<stop stop-color="#5956E9"/>
<stop offset="1" stop-color="#2522BA"/>
</linearGradient>
<linearGradient id="paint15_linear_23_20" x1="177.071" y1="203.755" x2="177.071" y2="209.51" gradientUnits="userSpaceOnUse">
<stop stop-color="#5956E9"/>
<stop offset="1" stop-color="#2522BA"/>
</linearGradient>
<linearGradient id="paint16_linear_23_20" x1="177.081" y1="202.344" x2="177.081" y2="210.906" gradientUnits="userSpaceOnUse">
<stop stop-color="#5956E9"/>
<stop offset="1" stop-color="#2522BA"/>
</linearGradient>
<linearGradient id="paint17_linear_23_20" x1="177.071" y1="218.142" x2="177.071" y2="223.897" gradientUnits="userSpaceOnUse">
<stop stop-color="#5956E9"/>
<stop offset="1" stop-color="#2522BA"/>
</linearGradient>
<linearGradient id="paint18_linear_23_20" x1="177.081" y1="216.726" x2="177.081" y2="225.288" gradientUnits="userSpaceOnUse">
<stop stop-color="#5956E9"/>
<stop offset="1" stop-color="#2522BA"/>
</linearGradient>
<linearGradient id="paint19_linear_23_20" x1="127.858" y1="157.126" x2="127.858" y2="254.307" gradientUnits="userSpaceOnUse">
<stop stop-color="#5956E9"/>
<stop offset="1" stop-color="#2522BA"/>
</linearGradient>
<linearGradient id="paint20_linear_23_20" x1="127.857" y1="1.40662" x2="127.857" y2="147.16" gradientUnits="userSpaceOnUse">
<stop stop-color="#5956E9"/>
<stop offset="1" stop-color="#2522BA"/>
</linearGradient>
<linearGradient id="paint21_linear_23_20" x1="127.854" y1="1.40662" x2="127.854" y2="147.161" gradientUnits="userSpaceOnUse">
<stop stop-color="#5956E9"/>
<stop offset="1" stop-color="#2522BA"/>
</linearGradient>
</defs>
</svg>
