<svg width="256" height="256" viewBox="0 0 256 256" fill="none" xmlns="http://www.w3.org/2000/svg">
<path d="M244.444 248.422H11.2697C5.83237 248.422 1.40662 243.999 1.40662 238.559V17.1538C1.40662 11.7165 5.83237 7.29071 11.2697 7.29071H244.444C249.884 7.29071 254.307 11.7165 254.307 17.1538V238.562C254.307 243.999 249.884 248.422 244.444 248.422ZM11.2697 12.9107C8.92899 12.9107 7.02662 14.8131 7.02662 17.1538V238.562C7.02662 240.9 8.92899 242.805 11.2697 242.805H244.444C246.781 242.805 248.687 240.9 248.687 238.562V17.1538C248.687 14.8131 246.781 12.9107 244.444 12.9107H11.2697Z" fill="url(#paint0_linear_23_2)"/>
<path d="M251.497 53.9142H4.21662C2.6655 53.9142 1.40662 52.6554 1.40662 51.1042V17.1538C1.40662 11.7165 5.83237 7.29071 11.2697 7.29071H244.444C249.884 7.29071 254.307 11.7165 254.307 17.1538V51.1042C254.307 52.6554 253.051 53.9142 251.497 53.9142ZM7.02662 48.2942H248.687V17.1538C248.687 14.8131 246.781 12.9107 244.444 12.9107H11.2697C8.92899 12.9107 7.02662 14.8131 7.02662 17.1538V48.2942Z" fill="url(#paint1_linear_23_2)"/>
<path d="M223.006 122.992H32.7072C26.2779 122.992 21.0513 117.763 21.0513 111.337V85.5886C21.0513 79.1593 26.2807 73.9327 32.7072 73.9327H223.009C229.435 73.9327 234.665 79.1621 234.665 85.5886V111.337C234.665 117.763 229.433 122.992 223.006 122.992ZM32.7072 79.5499C29.3774 79.5499 26.6713 82.2587 26.6713 85.5858V111.334C26.6713 114.664 29.3802 117.37 32.7072 117.37H223.009C226.339 117.37 229.045 114.664 229.045 111.334V85.5858C229.045 82.2559 226.336 79.5499 223.009 79.5499H32.7072Z" fill="url(#paint2_linear_23_2)"/>
<path d="M223.006 122.992H175.452C173.898 122.992 172.642 121.734 172.642 120.182V76.7399C172.642 75.1888 173.898 73.9299 175.452 73.9299H223.006C229.432 73.9299 234.662 79.1593 234.662 85.5858V111.334C234.665 117.763 229.432 122.992 223.006 122.992ZM178.262 117.372H223.006C226.336 117.372 229.042 114.666 229.042 111.337V85.5886C229.042 82.2587 226.333 79.5527 223.006 79.5527H178.262V117.372Z" fill="url(#paint3_linear_23_2)"/>
<path d="M205.975 106.464C203.218 106.464 200.624 105.391 198.674 103.44C194.65 99.4138 194.65 92.8664 198.674 88.8397C202.572 84.9394 209.375 84.9366 213.275 88.8397C217.299 92.8664 217.299 99.4138 213.275 103.44C211.325 105.391 208.731 106.464 205.975 106.464ZM205.975 91.4362C204.719 91.4362 203.538 91.9251 202.648 92.8131C200.815 94.648 200.815 97.6322 202.648 99.4671C204.426 101.246 207.523 101.243 209.302 99.4671C211.134 97.6322 211.134 94.648 209.302 92.8131C208.414 91.9251 207.231 91.4362 205.975 91.4362Z" fill="url(#paint4_linear_23_2)"/>
<path d="M193.821 111.106C193.102 111.106 192.383 110.831 191.835 110.283C190.736 109.187 190.736 107.408 191.835 106.31L198.677 99.4672C199.776 98.3684 201.552 98.3684 202.65 99.4672C203.749 100.563 203.749 102.342 202.65 103.441L195.808 110.283C195.257 110.831 194.538 111.106 193.821 111.106Z" fill="url(#paint5_linear_23_2)"/>
<path d="M123.262 226.962H32.7072C26.2779 226.962 21.0513 221.733 21.0513 215.307V153.029C21.0513 146.602 26.2807 141.373 32.7072 141.373H123.262C129.689 141.373 134.918 146.602 134.918 153.029V215.304C134.918 221.73 129.689 226.962 123.262 226.962ZM32.7072 146.993C29.3774 146.993 26.6713 149.702 26.6713 153.029V215.304C26.6713 218.634 29.3802 221.34 32.7072 221.34H123.262C126.592 221.34 129.298 218.631 129.298 215.304V153.029C129.298 149.699 126.592 146.993 123.262 146.993H32.7072Z" fill="url(#paint6_linear_23_2)"/>
<path d="M223.006 182.002H163.76C157.334 182.002 152.104 176.773 152.104 170.347V153.031C152.104 146.605 157.334 141.375 163.76 141.375H223.006C229.433 141.375 234.662 146.605 234.662 153.031V170.347C234.665 176.77 229.433 182.002 223.006 182.002ZM163.76 146.993C160.43 146.993 157.724 149.702 157.724 153.029V170.344C157.724 173.674 160.433 176.38 163.76 176.38H223.006C226.336 176.38 229.042 173.671 229.042 170.344V153.029C229.042 149.699 226.333 146.993 223.006 146.993H163.76Z" fill="url(#paint7_linear_23_2)"/>
<path d="M95.0358 203.17C93.4847 203.17 92.2258 201.914 92.2258 200.36V187.74C92.2258 186.187 93.4847 184.93 95.0358 184.93H107.656C109.207 184.93 110.466 186.187 110.466 187.74C110.466 189.294 109.207 190.55 107.656 190.55H97.8458V200.36C97.8458 201.911 96.587 203.17 95.0358 203.17Z" fill="url(#paint8_linear_23_2)"/>
<path d="M114.11 209.628C113.391 209.628 112.671 209.352 112.123 208.804L93.0463 189.727C91.9476 188.628 91.9476 186.852 93.0463 185.754C94.145 184.655 95.921 184.655 97.0197 185.754L116.097 204.831C117.195 205.93 117.195 207.706 116.097 208.804C115.549 209.352 114.829 209.628 114.11 209.628Z" fill="url(#paint9_linear_23_2)"/>
<path d="M231.855 226.962H154.914C153.36 226.962 152.104 225.706 152.104 224.152C152.104 222.599 153.36 221.342 154.914 221.342H231.855C233.409 221.342 234.665 222.599 234.665 224.152C234.665 225.706 233.409 226.962 231.855 226.962Z" fill="url(#paint10_linear_23_2)"/>
<path d="M231.855 204.482H154.914C153.36 204.482 152.104 203.226 152.104 201.672C152.104 200.119 153.36 198.862 154.914 198.862H231.855C233.409 198.862 234.665 200.119 234.665 201.672C234.665 203.226 233.409 204.482 231.855 204.482Z" fill="url(#paint11_linear_23_2)"/>
<path d="M230.447 33.4125H104.756C103.204 33.4125 101.946 32.1536 101.946 30.6025C101.946 29.0514 103.204 27.7925 104.756 27.7925H230.447C232.001 27.7925 233.257 29.0514 233.257 30.6025C233.257 32.1536 232.001 33.4125 230.447 33.4125Z" fill="url(#paint12_linear_23_2)"/>
<path d="M88.4716 33.4125H74.1182C72.567 33.4125 71.3082 32.1536 71.3082 30.6025C71.3082 29.0514 72.567 27.7925 74.1182 27.7925H88.4716C90.0228 27.7925 91.2816 29.0514 91.2816 30.6025C91.2816 32.1536 90.0228 33.4125 88.4716 33.4125Z" fill="url(#paint13_linear_23_2)"/>
<path d="M62.3022 33.4125H47.9487C46.3976 33.4125 45.1387 32.1536 45.1387 30.6025C45.1387 29.0514 46.3976 27.7925 47.9487 27.7925H62.3022C63.8533 27.7925 65.1122 29.0514 65.1122 30.6025C65.1122 32.1536 63.8561 33.4125 62.3022 33.4125Z" fill="url(#paint14_linear_23_2)"/>
<path d="M36.1354 33.4125H21.7819C20.2308 33.4125 18.9719 32.1536 18.9719 30.6025C18.9719 29.0514 20.2308 27.7925 21.7819 27.7925H36.1354C37.6865 27.7925 38.9454 29.0514 38.9454 30.6025C38.9454 32.1536 37.6893 33.4125 36.1354 33.4125Z" fill="url(#paint15_linear_23_2)"/>
<defs>
<linearGradient id="paint0_linear_23_2" x1="127.857" y1="7.29071" x2="127.857" y2="248.422" gradientUnits="userSpaceOnUse">
<stop stop-color="#5956E9"/>
<stop offset="1" stop-color="#2522BA"/>
</linearGradient>
<linearGradient id="paint1_linear_23_2" x1="127.857" y1="7.29071" x2="127.857" y2="53.9142" gradientUnits="userSpaceOnUse">
<stop stop-color="#5956E9"/>
<stop offset="1" stop-color="#2522BA"/>
</linearGradient>
<linearGradient id="paint2_linear_23_2" x1="127.858" y1="73.9327" x2="127.858" y2="122.992" gradientUnits="userSpaceOnUse">
<stop stop-color="#5956E9"/>
<stop offset="1" stop-color="#2522BA"/>
</linearGradient>
<linearGradient id="paint3_linear_23_2" x1="203.652" y1="73.9299" x2="203.652" y2="122.992" gradientUnits="userSpaceOnUse">
<stop stop-color="#5956E9"/>
<stop offset="1" stop-color="#2522BA"/>
</linearGradient>
<linearGradient id="paint4_linear_23_2" x1="205.975" y1="85.9135" x2="205.975" y2="106.464" gradientUnits="userSpaceOnUse">
<stop stop-color="#5956E9"/>
<stop offset="1" stop-color="#2522BA"/>
</linearGradient>
<linearGradient id="paint5_linear_23_2" x1="197.242" y1="98.6431" x2="197.242" y2="111.106" gradientUnits="userSpaceOnUse">
<stop stop-color="#5956E9"/>
<stop offset="1" stop-color="#2522BA"/>
</linearGradient>
<linearGradient id="paint6_linear_23_2" x1="77.9847" y1="141.373" x2="77.9847" y2="226.962" gradientUnits="userSpaceOnUse">
<stop stop-color="#5956E9"/>
<stop offset="1" stop-color="#2522BA"/>
</linearGradient>
<linearGradient id="paint7_linear_23_2" x1="193.383" y1="141.375" x2="193.383" y2="182.002" gradientUnits="userSpaceOnUse">
<stop stop-color="#5956E9"/>
<stop offset="1" stop-color="#2522BA"/>
</linearGradient>
<linearGradient id="paint8_linear_23_2" x1="101.346" y1="184.93" x2="101.346" y2="203.17" gradientUnits="userSpaceOnUse">
<stop stop-color="#5956E9"/>
<stop offset="1" stop-color="#2522BA"/>
</linearGradient>
<linearGradient id="paint9_linear_23_2" x1="104.572" y1="184.93" x2="104.572" y2="209.628" gradientUnits="userSpaceOnUse">
<stop stop-color="#5956E9"/>
<stop offset="1" stop-color="#2522BA"/>
</linearGradient>
<linearGradient id="paint10_linear_23_2" x1="193.384" y1="221.342" x2="193.384" y2="226.962" gradientUnits="userSpaceOnUse">
<stop stop-color="#5956E9"/>
<stop offset="1" stop-color="#2522BA"/>
</linearGradient>
<linearGradient id="paint11_linear_23_2" x1="193.384" y1="198.862" x2="193.384" y2="204.482" gradientUnits="userSpaceOnUse">
<stop stop-color="#5956E9"/>
<stop offset="1" stop-color="#2522BA"/>
</linearGradient>
<linearGradient id="paint12_linear_23_2" x1="167.601" y1="27.7925" x2="167.601" y2="33.4125" gradientUnits="userSpaceOnUse">
<stop stop-color="#5956E9"/>
<stop offset="1" stop-color="#2522BA"/>
</linearGradient>
<linearGradient id="paint13_linear_23_2" x1="81.2949" y1="27.7925" x2="81.2949" y2="33.4125" gradientUnits="userSpaceOnUse">
<stop stop-color="#5956E9"/>
<stop offset="1" stop-color="#2522BA"/>
</linearGradient>
<linearGradient id="paint14_linear_23_2" x1="55.1254" y1="27.7925" x2="55.1254" y2="33.4125" gradientUnits="userSpaceOnUse">
<stop stop-color="#5956E9"/>
<stop offset="1" stop-color="#2522BA"/>
</linearGradient>
<linearGradient id="paint15_linear_23_2" x1="28.9587" y1="27.7925" x2="28.9587" y2="33.4125" gradientUnits="userSpaceOnUse">
<stop stop-color="#5956E9"/>
<stop offset="1" stop-color="#2522BA"/>
</linearGradient>
</defs>
</svg>
